<?xml version="1.0" encoding="UTF-8"?>
<svg width="1644px" height="553px" viewBox="0 0 1644 553" version="1.1" xmlns="http://www.w3.org/2000/svg" xmlns:xlink="http://www.w3.org/1999/xlink" xmlns:sketch="http://www.bohemiancoding.com/sketch/ns">
    <!-- Generator: Sketch 3.3.1 (12002) - http://www.bohemiancoding.com/sketch -->
    <title>lcd-display-1</title>
    <desc>Created with Sketch.</desc>
    <defs></defs>
    <g id="Page-1" stroke="none" stroke-width="1" fill="none" fill-rule="evenodd" sketch:type="MSPage">
        <g id="lighting" sketch:type="MSLayerGroup" transform="translate(9.000000, 29.000000)" fill="#C79F02">
            <g id="left" sketch:type="MSShapeGroup">
                <ellipse id="Oval-1" cx="208.689368" cy="517" rx="7.10354392" ry="7"></ellipse>
                <ellipse id="Oval-1-Copy-4" cx="211.55191" cy="7" rx="7.10354392" ry="7"></ellipse>
                <ellipse id="Oval-1-Copy-2" cx="467.689368" cy="517" rx="7.10354392" ry="7"></ellipse>
                <ellipse id="Oval-1-Copy" cx="208.689368" cy="459" rx="7.10354392" ry="7"></ellipse>
                <rect id="Rectangle-357" x="0" y="510" width="39" height="14"></rect>
                <rect id="Rectangle-357-Copy" x="71" y="510" width="39" height="14"></rect>
                <rect id="Rectangle-357-Copy-2" x="140" y="510" width="39" height="14"></rect>
                <rect id="Rectangle-357-Copy-3" x="261" y="510" width="39" height="14"></rect>
                <rect id="Rectangle-357-Copy-4" x="331" y="510" width="39" height="14"></rect>
                <rect id="Rectangle-357-Copy-5" x="399" y="510" width="39" height="14"></rect>
                <rect id="Rectangle-357-Copy-6" x="598" y="510" width="39" height="14"></rect>
                <rect id="Rectangle-357-Copy-7" x="677" y="510" width="39" height="14"></rect>
                <path d="M761.207088,524 L788.61646,524 L788.61646,503.087072 L777.52457,503.087072 L777.52457,515.088639 L761.207088,515.088639 L761.207088,524 Z" id="Path-191"></path>
                <path d="M190.549396,405.795444 C194.327948,408.191222 199.839361,411.325838 198.157817,405.795445 C196.476274,400.265051 189.65801,395.766643 187.073832,396.641158 C185.011675,397.339015 186.770845,403.399667 190.549396,405.795444 Z" id="Oval-3"></path>
                <path d="M146.283822,328.798069 C148.887134,327.347727 154.07201,330.306698 155.595173,334.071836 C157.118335,337.836973 159.53798,344.112958 152.021257,341.997245 C144.504534,339.881531 143.680511,330.248412 146.283822,328.798069 Z" id="Path-193"></path>
                <path d="M193.666497,66.7954443 C197.445049,69.191222 202.956461,72.3258377 201.274918,66.7954446 C199.593375,61.2650515 192.775111,56.7666429 190.190933,57.6411578 C188.128776,58.339015 189.887946,64.3996666 193.666497,66.7954443 Z" id="Oval-3-Copy" transform="translate(195.451426, 63.704066) scale(1, -1) translate(-195.451426, -63.704066) "></path>
                <path d="M149.41822,125.798069 C152.021532,124.347727 157.206408,127.306698 158.729571,131.071836 C160.252733,134.836973 162.672378,141.112958 155.155655,138.997245 C147.638932,136.881531 146.814909,127.248412 149.41822,125.798069 Z" id="Path-193-Copy" transform="translate(154.212363, 132.422374) scale(1, -1) translate(-154.212363, -132.422374) "></path>
                <path d="M127.957608,233.031997 C127.957608,224.004951 138.771645,219.100918 138.771646,232.331823 C138.771646,245.562728 127.957608,242.059044 127.957608,233.031997 Z" id="Path-194"></path>
                <path d="M455.527512,462.265889 C458.49744,459.990375 464.452391,461.167858 467.804485,464.937871 C471.156579,468.707884 468.070127,472.719433 462.373395,471.151043 C456.676663,469.582654 452.557584,464.541404 455.527512,462.265889 Z" id="Path-195"></path>
                <path d="M416.706311,414.661234 C421.591835,423.545593 434.65618,417.564422 426.41618,409.464257 C418.17618,401.364093 411.820788,405.776875 416.706311,414.661234 Z" id="Path-196"></path>
                <path d="M391.763507,339.74556 C393.917082,350.028145 408.286847,348.666758 404.591225,336.963071 C400.895602,325.259384 389.609932,329.462976 391.763507,339.74556 Z" id="Path-197"></path>
                <path d="M460.130184,2.15751736 C463.100112,-0.117997265 469.055063,1.05948644 472.407157,4.82949906 C475.759251,8.59951169 472.672798,12.6110607 466.976066,11.0426714 C461.279335,9.47428207 457.160256,4.43303198 460.130184,2.15751736 Z" id="Path-195-Copy" transform="translate(466.465907, 6.195776) scale(1, -1) translate(-466.465907, -6.195776) "></path>
                <path d="M420.78406,61.2263479 C425.669583,70.110707 438.733929,64.1295357 430.493929,56.0293713 C422.253929,47.9292068 415.898536,52.3419888 420.78406,61.2263479 Z" id="Path-196-Copy" transform="translate(426.118377, 58.704066) scale(1, -1) translate(-426.118377, -58.704066) "></path>
                <path d="M393.615009,133.261896 C395.768584,143.54448 410.138349,142.183094 406.442727,130.479407 C402.747104,118.77572 391.461434,122.979312 393.615009,133.261896 Z" id="Path-197-Copy" transform="translate(400.195703, 131.805481) scale(1, -1) translate(-400.195703, -131.805481) "></path>
                <path d="M380.291007,235.963292 C380.291007,224.730953 395.17266,223.446869 395.17266,235.343045 C395.17266,247.239221 380.291007,247.195632 380.291007,235.963292 Z" id="Path-198"></path>
            </g>
            <g id="right" transform="translate(837.000000, 0.000000)" sketch:type="MSShapeGroup">
                <ellipse id="Oval-1" transform="translate(580.310632, 517.000000) scale(-1, 1) translate(-580.310632, -517.000000) " cx="580.310632" cy="517" rx="7.10354392" ry="7"></ellipse>
                <ellipse id="Oval-1-Copy-4" transform="translate(577.448090, 7.000000) scale(-1, 1) translate(-577.448090, -7.000000) " cx="577.44809" cy="7" rx="7.10354392" ry="7"></ellipse>
                <ellipse id="Oval-1-Copy-2" transform="translate(321.310632, 517.000000) scale(-1, 1) translate(-321.310632, -517.000000) " cx="321.310632" cy="517" rx="7.10354392" ry="7"></ellipse>
                <ellipse id="Oval-1-Copy" transform="translate(580.310632, 459.000000) scale(-1, 1) translate(-580.310632, -459.000000) " cx="580.310632" cy="459" rx="7.10354392" ry="7"></ellipse>
                <rect id="Rectangle-357" transform="translate(769.500000, 517.000000) scale(-1, 1) translate(-769.500000, -517.000000) " x="750" y="510" width="39" height="14"></rect>
                <rect id="Rectangle-357-Copy" transform="translate(698.500000, 517.000000) scale(-1, 1) translate(-698.500000, -517.000000) " x="679" y="510" width="39" height="14"></rect>
                <rect id="Rectangle-357-Copy-2" transform="translate(629.500000, 517.000000) scale(-1, 1) translate(-629.500000, -517.000000) " x="610" y="510" width="39" height="14"></rect>
                <rect id="Rectangle-357-Copy-3" transform="translate(508.500000, 517.000000) scale(-1, 1) translate(-508.500000, -517.000000) " x="489" y="510" width="39" height="14"></rect>
                <rect id="Rectangle-357-Copy-4" transform="translate(438.500000, 517.000000) scale(-1, 1) translate(-438.500000, -517.000000) " x="419" y="510" width="39" height="14"></rect>
                <rect id="Rectangle-357-Copy-5" transform="translate(370.500000, 517.000000) scale(-1, 1) translate(-370.500000, -517.000000) " x="351" y="510" width="39" height="14"></rect>
                <rect id="Rectangle-357-Copy-6" transform="translate(171.500000, 517.000000) scale(-1, 1) translate(-171.500000, -517.000000) " x="152" y="510" width="39" height="14"></rect>
                <rect id="Rectangle-357-Copy-7" transform="translate(92.500000, 517.000000) scale(-1, 1) translate(-92.500000, -517.000000) " x="73" y="510" width="39" height="14"></rect>
                <path d="M0.383539831,524 L27.7929122,524 L27.7929122,503.087072 L16.7010215,503.087072 L16.7010218,515.088639 L0.383539831,515.088639 L0.383539831,524 Z" id="Path-191" transform="translate(14.088226, 513.543536) scale(-1, 1) translate(-14.088226, -513.543536) "></path>
                <path d="M594.880746,405.795444 C598.659297,408.191222 604.17071,411.325838 602.489167,405.795445 C600.807623,400.265051 593.989359,395.766643 591.405182,396.641158 C589.343025,397.339015 591.102194,403.399667 594.880746,405.795444 Z" id="Oval-3" transform="translate(596.665675, 402.704066) scale(-1, 1) translate(-596.665675, -402.704066) "></path>
                <path d="M633.127892,328.798069 C635.731203,327.347727 640.91608,330.306698 642.439242,334.071836 C643.962404,337.836973 646.382049,344.112958 638.865326,341.997245 C631.348603,339.881531 630.52458,330.248412 633.127892,328.798069 Z" id="Path-193" transform="translate(637.922035, 335.422374) scale(-1, 1) translate(-637.922035, -335.422374) "></path>
                <path d="M591.763645,66.7954443 C595.542196,69.191222 601.053609,72.3258377 599.372066,66.7954446 C597.690522,61.2650515 590.872258,56.7666429 588.288081,57.6411578 C586.225924,58.339015 587.985093,64.3996666 591.763645,66.7954443 Z" id="Oval-3-Copy" transform="translate(593.548574, 63.704066) scale(-1, -1) translate(-593.548574, -63.704066) "></path>
                <path d="M629.993493,125.798069 C632.596805,124.347727 637.781681,127.306698 639.304844,131.071836 C640.828006,134.836973 643.247651,141.112958 635.730928,138.997245 C628.214205,136.881531 627.390182,127.248412 629.993493,125.798069 Z" id="Path-193-Copy" transform="translate(634.787637, 132.422374) scale(-1, -1) translate(-634.787637, -132.422374) "></path>
                <path d="M650.228354,233.031997 C650.228354,224.004951 661.042392,219.100918 661.042392,232.331823 C661.042393,245.562728 650.228354,242.059044 650.228354,233.031997 Z" id="Path-194" transform="translate(655.635373, 232.633799) scale(-1, 1) translate(-655.635373, -232.633799) "></path>
                <path d="M320.801041,462.265889 C323.770969,459.990375 329.72592,461.167858 333.078014,464.937871 C336.430108,468.707884 333.343655,472.719433 327.646924,471.151043 C321.950192,469.582654 317.831113,464.541404 320.801041,462.265889 Z" id="Path-195" transform="translate(327.136764, 466.304147) scale(-1, 1) translate(-327.136764, -466.304147) "></path>
                <path d="M361.625055,414.661234 C366.510578,423.545593 379.574924,417.564422 371.334924,409.464257 C363.094924,401.364093 356.739532,405.776875 361.625055,414.661234 Z" id="Path-196" transform="translate(366.959372, 412.138952) scale(-1, 1) translate(-366.959372, -412.138952) "></path>
                <path d="M384.075106,339.74556 C386.228681,350.028145 400.598446,348.666758 396.902823,336.963071 C393.2072,325.259384 381.921531,329.462976 384.075106,339.74556 Z" id="Path-197" transform="translate(390.655799, 338.289145) scale(-1, 1) translate(-390.655799, -338.289145) "></path>
                <path d="M316.198369,2.15751736 C319.168297,-0.117997265 325.123249,1.05948644 328.475343,4.82949906 C331.827437,8.59951169 328.740984,12.6110607 323.044252,11.0426714 C317.34752,9.47428207 313.228441,4.43303198 316.198369,2.15751736 Z" id="Path-195-Copy" transform="translate(322.534093, 6.195776) scale(-1, -1) translate(-322.534093, -6.195776) "></path>
                <path d="M357.547307,61.2263479 C362.43283,70.110707 375.497176,64.1295357 367.257176,56.0293713 C359.017176,47.9292068 352.661783,52.3419888 357.547307,61.2263479 Z" id="Path-196-Copy" transform="translate(362.881623, 58.704066) scale(-1, -1) translate(-362.881623, -58.704066) "></path>
                <path d="M382.223603,133.261896 C384.377178,143.54448 398.746943,142.183094 395.051321,130.479407 C391.355698,118.77572 380.070028,122.979312 382.223603,133.261896 Z" id="Path-197-Copy" transform="translate(388.804297, 131.805481) scale(-1, -1) translate(-388.804297, -131.805481) "></path>
                <path d="M393.82734,235.963292 C393.82734,224.730953 408.708993,223.446869 408.708993,235.343045 C408.708993,247.239221 393.82734,247.195632 393.82734,235.963292 Z" id="Path-198" transform="translate(401.268166, 235.646507) scale(-1, 1) translate(-401.268166, -235.646507) "></path>
            </g>
        </g>
        <g id="analyser" sketch:type="MSLayerGroup">
            <g id="line-1" transform="translate(0.000000, 1.000000)" fill="#4962A5" sketch:type="MSShapeGroup">
                <rect id="a1" x="0" y="452" width="58" height="67"></rect>
                <path d="M0,376 L56.060482,376 L58,381.862041 L58,443 L0,443 L0,376 Z" id="a2"></path>
                <path d="M0,301.236188 L35.2638283,303.244083 C35.2638283,303.244083 37.4646904,309.222199 40.0387611,317.049697 C42.7486957,325.290343 47.600358,339.075398 51.364254,351.455936 C53.8078238,359.493542 55.458519,369 55.458519,369 L0,369 L0,301.236188 Z" id="a3"></path>
                <path d="M0,226.982121 L33.4264297,225.907411 C33.4264297,225.907411 27.8825893,241.033264 27.8825893,259.816083 C27.8825893,278.598903 33.4264297,293.724754 33.4264297,293.724754 L0,291.946373 L0,226.982121 Z" id="a4"></path>
                <path d="M2,150.061287 L37.2638283,152.069182 C37.2638283,152.069182 39.4646904,158.047298 42.0387611,165.874796 C44.7486957,174.115443 49.600358,187.900497 53.364254,200.281036 C55.8078238,208.318641 57.458519,217.825099 57.458519,217.825099 L2,217.825099 L2,150.061287 Z" id="a5" transform="translate(29.729259, 183.943193) scale(1, -1) translate(-29.729259, -183.943193) "></path>
                <path d="M2.42642975,75.6389144 L58.4869118,75.6389144 L60.4264297,81.5009549 L60.4264297,142.638914 L2.42642975,142.638914 L2.42642975,75.6389144 Z" id="a6" transform="translate(31.426430, 109.138914) scale(1, -1) translate(-31.426430, -109.138914) "></path>
                <rect id="a7" transform="translate(31.426430, 33.904098) scale(1, -1) translate(-31.426430, -33.904098) " x="2.42642975" y="0.404097935" width="58" height="67"></rect>
            </g>
            <g id="line-2" transform="translate(40.000000, 1.000000)" fill="#4962A5" sketch:type="MSShapeGroup">
                <rect id="a1" x="30" y="452" width="58" height="67"></rect>
                <path d="M30.9757867,376.443357 L69.2673555,379.787174 C69.2673555,379.787174 81.0849552,394.708095 84.5795465,401.550202 C87.2974576,406.871637 88.3257318,415.060521 88.3257318,415.060521 L88.3257318,442.999997 L30.9757867,442.999997 L30.9757867,376.443357 Z" id="a2"></path>
                <path d="M29.6382596,368.469993 C29.6382596,368.469993 23.9292891,347.085393 20.3791678,336.362404 C16.7097875,325.279199 8.21930633,303.57684 8.21930633,303.57684 L37.344539,305.187669 C37.344539,305.187669 42.352569,325.523268 45.8837579,334.998514 C50.5510122,347.522167 63.4362557,370.957272 63.4362557,370.957272 L29.6382596,368.469993 Z" id="a3"></path>
                <path d="M0.583657745,259.665131 C0.670143442,277.313683 7.57697046,294.137247 7.57697046,294.137247 L35.8315929,295.11795 C35.8315929,295.11795 31.0713831,277.79584 30.9895425,259.665131 C30.907702,241.534423 35.3794862,224.212315 35.3794862,224.212315 L7.10164374,225.238092 C7.10164374,225.238092 0.497172048,242.016579 0.583657745,259.665131 Z" id="a4"></path>
                <path d="M30.6420715,213.266146 C30.6420715,213.266146 24.933101,191.881546 21.3829797,181.158557 C17.7135994,170.075352 9.22311822,148.372994 9.22311822,148.372994 L38.3483509,149.983822 C38.3483509,149.983822 43.3563809,170.319421 46.8875698,179.794667 C51.5548241,192.31832 64.4400676,215.753425 64.4400676,215.753425 L30.6420715,213.266146 Z" id="a5" transform="translate(36.831593, 182.063209) scale(1, -1) translate(-36.831593, -182.063209) "></path>
                <path d="M32.6258417,75.6389144 L70.9174104,78.9827323 C70.9174104,78.9827323 82.7350102,93.9036529 86.2296014,100.74576 C88.9475125,106.067195 89.9757867,114.256079 89.9757867,114.256079 L89.9757867,142.195555 L32.6258417,142.195555 L32.6258417,75.6389144 Z" id="a6" transform="translate(61.300814, 108.917235) scale(1, -1) translate(-61.300814, -108.917235) "></path>
                <rect id="a7" transform="translate(60.975787, 33.822885) scale(1, -1) translate(-60.975787, -33.822885) " x="31.9757867" y="0.3228847" width="58" height="67"></rect>
            </g>
            <g id="line-3" transform="translate(85.000000, 0.000000)" fill="#4962A5" sketch:type="MSShapeGroup">
                <rect id="a1" x="55" y="453" width="58" height="67"></rect>
                <path d="M55.9758151,408.655097 C49.8746197,395.163279 40.8652736,382.634368 40.8652736,382.634368 L62.7670493,384.28084 C62.7670493,384.28084 71.8878047,403.946745 77.9081147,413.269844 C84.7327518,423.83853 101.301891,443.956195 101.301891,443.956195 L56.9747983,443.852597 C56.9747983,443.852597 57.0517016,411.034249 55.9758151,408.655097 Z" id="a2"></path>
                <path d="M33.7993198,372.958106 C33.7993198,372.958106 22.5039585,354.702634 18.6332784,345.047637 C16.2578769,339.122452 13.1095349,332.547 10.8587864,324.852456 C8.28435084,316.051336 6.47418161,306.559339 6.47418161,306.559339 L36.7113413,307.715219 C36.7113413,307.715219 40.3723646,327.955053 43.3451544,337.629262 C47.3149871,350.548101 57.8461318,375.362143 57.8461318,375.362143 L33.7993198,372.958106 Z" id="a3"></path>
                <path d="M4.20581982,296.102586 C4.20581982,296.102586 0.520823153,282.277535 0.521147716,260.570527 C0.521472278,238.863518 4.20581982,225.418865 4.20581982,225.418865 L35.5352068,224.337582 C35.5352068,224.337582 33.2745702,240.994004 33.2745695,260.570527 C33.2745688,280.14705 35.5405246,296.803474 35.5405246,296.803474 L4.20581982,296.102586 Z" id="a4"></path>
                <path d="M35.1796877,213.037681 C35.1796877,213.037681 23.8843264,194.782209 20.0136463,185.127212 C17.6382448,179.202027 14.4899028,172.626575 12.2391543,164.932031 C9.66471873,156.130911 7.8545495,146.638914 7.8545495,146.638914 L38.0917092,147.794794 C38.0917092,147.794794 41.7527325,168.034628 44.7255223,177.708837 C48.695355,190.627675 59.2264997,215.441718 59.2264997,215.441718 L35.1796877,213.037681 Z" id="a5" transform="translate(33.540525, 181.040316) scale(1, -1) translate(-33.540525, -181.040316) "></path>
                <path d="M58.4362733,102.659644 C52.3350779,89.1678256 43.3257318,76.6389144 43.3257318,76.6389144 L65.2275076,78.2853863 C65.2275076,78.2853863 74.3482629,97.9512913 80.3685729,107.27439 C87.1932101,117.843076 103.762349,137.960741 103.762349,137.960741 L59.4352565,137.857143 C59.4352565,137.857143 59.5121598,105.038795 58.4362733,102.659644 Z" id="a6" transform="translate(73.544040, 107.299828) scale(1, -1) translate(-73.544040, -107.299828) "></path>
                <rect id="a7" transform="translate(85.846132, 34.460741) scale(1, -1) translate(-85.846132, -34.460741) " x="56.8461318" y="0.960741391" width="58" height="67"></rect>
            </g>
            <g id="line-4" transform="translate(182.000000, 2.000000)" fill="#4962A5" sketch:type="MSShapeGroup">
                <path d="M80.0494385,517.555216 L80.2191313,454.622886 L123.627659,457.832453 C123.627659,457.832453 128.019012,460.856235 132.02837,466.351764 C136.037727,471.847293 136.885598,477.055187 136.885598,477.055187 L136.885597,517.555217 L80.0494385,517.555216 Z" id="a1"></path>
                <path d="M78.7180123,443.094052 C78.7180123,443.094052 78.6480806,431.15843 65.58442,413.204069 C52.5207594,395.249707 47.0827606,389.735695 47.0827606,389.735695 L75.4701126,391.47677 C75.4701126,391.47677 80.0938537,401.967769 90.072892,417.875091 C100.05193,433.782413 112.322011,446.014487 112.322011,446.014487 L78.7180123,443.094052 Z" id="a2"></path>
                <path d="M38.2284664,378.558811 C38.2284664,378.558811 28.5894664,367.168357 19.4974416,346.411392 C10.4054168,325.654426 6.55121752,307.435866 6.55121752,307.435866 L48.9839873,308.607974 C48.9839873,308.607974 55.6561474,342.705585 60.6909565,356.020164 C65.7257656,369.334743 70.3085941,380.219425 70.3085941,380.219425 L38.2284664,378.558811 Z" id="a3"></path>
                <path d="M4.71135474,297.078496 C4.71135474,297.078496 0.464021211,279.27554 0.464021212,258.653119 C0.464021213,238.030698 4.71135474,221.517208 4.71135474,221.517208 L48.8002296,220.758625 C48.8002296,220.758625 45.7684074,236.883023 45.7684074,258.653119 C45.7684074,280.423215 48.8002296,298.053258 48.8002296,298.053258 L4.71135474,297.078496 Z" id="a4"></path>
                <path d="M40.2284664,208.799305 C40.2284664,208.799305 30.5894664,197.408852 21.4974416,176.651886 C12.4054168,155.89492 8.55121752,137.67636 8.55121752,137.67636 L50.9839873,138.848468 C50.9839873,138.848468 57.6561474,172.946079 62.6909565,186.260658 C67.7257656,199.575237 72.3085941,210.459919 72.3085941,210.459919 L40.2284664,208.799305 Z" id="a5" transform="translate(40.429906, 174.068140) scale(1, -1) translate(-40.429906, -174.068140) "></path>
                <path d="M80.5182709,125.755926 C80.5182709,125.755926 80.4483392,113.820304 67.3846786,95.8659427 C54.321018,77.9115812 48.8830192,72.3975684 48.8830192,72.3975684 L77.2703712,74.1386439 C77.2703712,74.1386439 81.8941124,84.6296432 91.8731506,100.536965 C101.852189,116.444287 114.122269,128.67636 114.122269,128.67636 L80.5182709,125.755926 Z" id="a6" transform="translate(81.502644, 100.536964) scale(1, -1) translate(-81.502644, -100.536964) "></path>
                <path d="M82.3091363,63.5505124 L82.4788291,0.618182535 L125.887357,3.8277496 C125.887357,3.8277496 130.27871,6.85153138 134.288068,12.3470606 C138.297425,17.8425897 139.145296,23.0504836 139.145296,23.0504836 L139.145295,63.5505136 L82.3091363,63.5505124 Z" id="a7" transform="translate(110.727216, 32.084348) scale(1, -1) translate(-110.727216, -32.084348) "></path>
            </g>
            <g id="line-5" transform="translate(241.000000, 3.000000)" fill="#4962A5" sketch:type="MSShapeGroup">
                <path d="M92.5812416,517.029415 L92.5812416,476.080429 C92.5812416,476.080429 91.7825623,469.5413 89.8800245,466.509794 C87.9774866,463.478289 85.762631,459.625999 85.762631,459.625999 L123.6753,461.667787 C123.6753,461.667787 128.98531,467.589371 134.332772,472.895368 C139.680234,478.201365 145.916012,482.450601 145.916012,482.450601 L145.916012,517.029415 L92.5812416,517.029415 Z" id="a1"></path>
                <path d="M47.8430278,415.839949 C58.0459974,431.074686 75.2521456,446.950091 75.2521456,446.950091 L115.359821,450.977625 C115.359821,450.977625 105.876938,437.970209 96.6323164,421.154987 C87.3876951,404.339766 82.9037969,393.636547 82.9037969,393.636547 L34.5761678,391.33235 C34.5761678,391.33235 37.6400583,400.605211 47.8430278,415.839949 Z" id="a2"></path>
                <path d="M12.2276966,340.607531 C17.9218151,361.13114 28.4446159,380.257561 28.4446159,380.257561 L79.1452958,382.906555 C79.1452958,382.906555 69.5250036,356.511252 65.3715002,336.954552 C61.2179968,317.397853 60.2137864,308.928704 60.2137864,308.928704 L5.40714582,307.652506 C5.40714582,307.652506 6.53357812,320.083922 12.2276966,340.607531 Z" id="a3"></path>
                <path d="M0.767920521,258.081738 C0.767920521,281.084195 4.39452675,297.062321 4.39452675,297.062321 L59.0282222,298.143779 C59.0282222,298.143779 57.0456648,276.690843 57.2223578,256.622628 C57.3990507,236.554414 60.1222694,218.0197 60.1222694,218.0197 L5.08002284,219.435324 C5.08002284,219.435324 0.767920521,235.079282 0.767920521,258.081738 Z" id="a4"></path>
                <path d="M14.2276966,166.700976 C19.9218151,187.224585 30.4446159,206.351006 30.4446159,206.351006 L81.1452958,209 C81.1452958,209 71.5250036,182.604697 67.3715002,163.047997 C63.2179968,143.491297 62.2137864,135.022148 62.2137864,135.022148 L7.40714582,133.74595 C7.40714582,133.74595 8.53357812,146.177367 14.2276966,166.700976 Z" id="a5" transform="translate(44.276221, 171.372975) scale(1, -1) translate(-44.276221, -171.372975) "></path>
                <path d="M51.3225286,89.4874185 C61.5254981,104.722156 78.7316463,120.597561 78.7316463,120.597561 L118.839322,124.625095 C118.839322,124.625095 109.356438,111.617679 100.111817,94.8024571 C90.8671958,77.9872354 86.3832976,67.2840164 86.3832976,67.2840164 L38.0556685,64.9798196 C38.0556685,64.9798196 41.119559,74.2526811 51.3225286,89.4874185 Z" id="a6" transform="translate(78.447495, 94.802457) scale(1, -1) translate(-78.447495, -94.802457) "></path>
                <path d="M94.5812416,57.5505136 L94.5812416,16.6015276 C94.5812416,16.6015276 93.7825623,10.0623988 91.8800245,7.0308932 C89.9774866,3.99938762 87.762631,0.14709794 87.762631,0.14709794 L125.6753,2.1888862 C125.6753,2.1888862 130.98531,8.11047017 136.332772,13.4164671 C141.680234,18.722464 147.916012,22.9716997 147.916012,22.9716997 L147.916012,57.5505136 L94.5812416,57.5505136 Z" id="a7" transform="translate(117.839322, 28.848806) scale(1, -1) translate(-117.839322, -28.848806) "></path>
            </g>
            <g id="line-6" transform="translate(311.000000, 2.000000)" fill="#4962A5" sketch:type="MSShapeGroup">
                <path d="M90.7539028,518.424411 L90.7539025,483.046864 C90.7539025,483.046864 89.8616475,480.062998 88.568622,478.425015 C87.0539132,476.506207 84.7832824,473.929194 82.2996811,471.476151 C79.0724328,468.288612 76.425958,464.896461 76.425958,464.896461 L118.425687,466.991184 C118.425687,466.991184 124.626903,476.863417 127.902395,481.440473 C131.784436,486.8651 139.898288,496.996233 139.898288,496.996233 C139.898288,496.996233 142.059383,501.612849 142.952485,503.743984 C144.02566,506.304809 145.797121,511.072115 145.797121,511.072115 L145.996067,518.424409 L90.7539028,518.424411 Z" id="a1"></path>
                <path d="M43.4381624,424.604704 C34.4361341,408.087532 28.6523747,395.24838 28.6523747,395.24838 L84.2485288,397.202037 C84.2485288,397.202037 88.1558413,409.186028 94.762012,426.098608 C101.368183,443.011189 110.938754,456.322962 110.938754,456.322962 L64.876912,453.93295 C64.876912,453.93295 52.4401908,441.121876 43.4381624,424.604704 Z" id="a2"></path>
                <path d="M9.65558087,340.689407 C13.9691004,359.703624 24.2089514,384.135842 24.2089514,384.135842 L81.0993994,386.368218 C81.0993994,386.368218 73.958281,356.757254 71.4683789,342.129522 C69.619394,331.267065 67.6432929,311.050749 67.6432929,311.050749 L5.03357185,309.845047 C5.03357185,309.845047 5.3420614,321.67519 9.65558087,340.689407 Z" id="a3"></path>
                <path d="M0.989499638,259.253972 C0.939031177,283.289247 4.29338484,299.214732 4.29338484,299.214732 L66.0978988,300.458696 C66.0978988,300.458696 64.8058685,280.69375 64.8058685,259.253972 C64.8058685,237.814195 67.660003,217.927942 67.660003,217.927942 L4.60122866,219.416807 C4.60122866,219.416807 1.0399681,235.218698 0.989499638,259.253972 Z" id="a4"></path>
                <path d="M11.6555809,162.52072 C15.9691004,181.534938 26.2089514,205.967156 26.2089514,205.967156 L83.0993994,208.199531 C83.0993994,208.199531 75.958281,178.588567 73.4683789,163.960835 C71.619394,153.098378 69.6432929,132.882063 69.6432929,132.882063 L7.03357185,131.67636 C7.03357185,131.67636 7.3420614,143.506503 11.6555809,162.52072 Z" id="a5" transform="translate(45.066486, 169.937946) scale(1, -1) translate(-45.066486, -169.937946) "></path>
                <path d="M46.1102571,91.9068373 C37.1082288,75.3896655 31.3244694,62.5505136 31.3244694,62.5505136 L86.9206235,64.5041702 C86.9206235,64.5041702 90.827936,76.4881608 97.4341067,93.4007413 C104.040277,110.313322 113.610849,123.625095 113.610849,123.625095 L67.5490067,121.235083 C67.5490067,121.235083 55.1122855,108.424009 46.1102571,91.9068373 Z" id="a6" transform="translate(72.467659, 93.087804) scale(1, -1) translate(-72.467659, -93.087804) "></path>
                <path d="M93.4273442,54.1461328 L93.4273438,18.7685861 C93.4273438,18.7685861 92.5350889,15.7847199 91.2420634,14.1467365 C89.7273546,12.2279284 87.4567238,9.65091563 84.9731225,7.19787299 C81.7458741,4.01033338 79.0993994,0.618182535 79.0993994,0.618182535 L121.099128,2.7129056 C121.099128,2.7129056 127.300344,12.5851386 130.575836,17.1621946 C134.457878,22.5868215 142.57173,32.7179545 142.57173,32.7179545 C142.57173,32.7179545 144.732824,37.3345705 145.625927,39.4657053 C146.699102,42.0265312 148.470562,46.7938368 148.470562,46.7938368 L148.669508,54.1461312 L93.4273442,54.1461328 Z" id="a7" transform="translate(113.884454, 27.382158) scale(1, -1) translate(-113.884454, -27.382158) "></path>
            </g>
            <g id="line-7" transform="translate(439.000000, 2.000000)" fill="#7AC9D0" sketch:type="MSShapeGroup">
                <path d="M80.2764797,519.11542 L132.223108,519.11542 L131.78391,510.645179 C131.78391,510.645179 129.490109,505.291675 125.599587,499.401718 C121.630771,493.393228 116.041463,486.811744 113.74439,483.27689 C109.195558,476.276917 106.808202,471.364176 106.808202,471.364176 L69.3017664,470.446043 C69.3017664,470.446043 73.3884886,478.959303 75.0249304,483.27689 C77.0467264,488.611195 80.2764798,499.401719 80.2764798,499.401719 L80.2764797,519.11542 Z" id="a1"></path>
                <path d="M52.8481695,446.212195 C45.6737111,436.744204 36.2860369,424.953643 32.2477425,417.811768 C24.7097457,404.480538 23.7490598,398.783373 23.7490598,398.783373 L82.4276239,400.173943 C82.4276239,400.173943 85.6017667,416.674468 90.0335447,430.914954 C94.4653226,445.15544 102.885404,463.046537 102.885404,463.046537 L63.4409566,460.89421 C63.4409566,460.89421 59.0657619,454.417429 52.8481695,446.212195 Z" id="a2"></path>
                <path d="M19.6382919,388.833345 C19.6382919,388.833345 13.0261422,367.584985 8.7475572,347.384557 C4.46897224,327.184129 3.38904146,310.886308 3.38904146,310.886308 L68.8100188,311.781108 C68.8100188,311.781108 69.7208133,326.037343 71.9892459,344.337892 C74.2576785,362.63844 79.769321,390.637803 79.769321,390.637803 L19.6382919,388.833345 Z" id="a3"></path>
                <path d="M0.67745173,259.125121 C0.67745173,234.68244 2.40198934,217.053501 2.40198934,217.053501 L68.8661999,216.267722 C68.8661999,216.267722 67.5610272,235.499236 67.5610272,256.693434 C67.5610272,277.887633 68.8661999,301.98252 68.8661999,301.98252 L2.40198934,301.074118 C2.40198934,301.074118 0.67745173,283.567801 0.67745173,259.125121 Z" id="a4"></path>
                <path d="M20.434529,205.180967 C20.434529,205.180967 13.8223793,183.932608 9.54379434,163.73218 C5.26520938,143.531752 4.1852786,127.233931 4.1852786,127.233931 L69.6062559,128.128731 C69.6062559,128.128731 70.5170504,142.384966 72.7854831,160.685514 C75.0539157,178.986063 80.5655581,206.985426 80.5655581,206.985426 L20.434529,205.180967 Z" id="a5" transform="translate(42.375418, 167.109678) scale(1, -1) translate(-42.375418, -167.109678) "></path>
                <path d="M54.8481695,103.399589 C47.6737111,93.9315974 38.2860369,82.1410371 34.2477425,74.9991619 C26.7097457,61.6679317 25.7490598,55.9707672 25.7490598,55.9707672 L84.4276239,57.3613373 C84.4276239,57.3613373 87.6017667,73.8618614 92.0335447,88.1023475 C96.4653226,102.342834 104.885404,120.233931 104.885404,120.233931 L65.4409566,118.081604 C65.4409566,118.081604 61.0657619,111.604823 54.8481695,103.399589 Z" id="a6" transform="translate(65.317232, 88.102349) scale(1, -1) translate(-65.317232, -88.102349) "></path>
                <path d="M81.3123542,49.1154197 L133.258982,49.1154202 L132.819785,40.6451793 C132.819785,40.6451793 130.525983,35.2916751 126.635462,29.4017185 C122.666645,23.3932282 117.077338,16.811744 114.780264,13.2768901 C110.231432,6.27691684 107.844077,1.36417564 107.844077,1.36417564 L70.3376409,0.446043351 C70.3376409,0.446043351 74.4243631,8.95930314 76.060805,13.2768901 C78.0826009,18.6111949 81.3123543,29.4017188 81.3123543,29.4017188 L81.3123542,49.1154197 Z" id="a7" transform="translate(101.798312, 24.780732) scale(1, -1) translate(-101.798312, -24.780732) "></path>
            </g>
            <g id="line-8" transform="translate(519.000000, 1.000000)" fill="#7AC9D0" sketch:type="MSShapeGroup">
                <path d="M65.1862441,520.128878 L65.1862441,512.129332 C65.1862441,512.129332 64.4790775,508.853215 63.2565032,506.098555 C62.033929,503.343896 53.0890247,491.034053 47.8676869,483.140144 C45.9453775,480.23389 42.5958854,473.98329 42.5958854,473.98329 L112.47703,476.579829 C112.47703,476.579829 115.103843,483.239726 118.0866,488.857374 C119.584058,491.677647 126.015631,500.390208 129.20819,507.52904 C132.374827,514.609909 132.308692,520.128878 132.308692,520.128878 L65.1862441,520.128878 Z" id="a1"></path>
                <path d="M23.2473596,429.861608 C29.0163329,448.2641 38.6212617,465.088737 38.6212617,465.088737 L109.85765,467.364306 C109.85765,467.364306 104.405029,449.026828 100.559371,429.861608 C96.713714,410.696387 96.0227884,403.020597 96.0227884,403.020597 L16.0101846,401.058467 C16.0101846,401.058467 17.4783862,411.459115 23.2473596,429.861608 Z" id="a2"></path>
                <path d="M6.107203,350.650698 C2.90969217,327.28533 2.6182762,312.830746 2.6182762,312.830746 L86.3859318,313.521605 C86.3859318,313.521605 86.6050175,322.741464 88.6865605,348.300455 C90.7681034,373.859445 94.0147486,393.078852 94.0147486,393.078852 L14.238114,391.185259 C14.238114,391.185259 9.30471384,374.016065 6.107203,350.650698 Z" id="a3"></path>
                <path d="M0.565558138,260.305011 C0.565558138,286.747775 1.95114154,302.762424 1.95114154,302.762424 L86.0558917,303.554096 C86.0558917,303.554096 85.3251101,285.700305 85.3251101,260.305011 C85.3251101,234.909717 86.0558917,216.576609 86.0558917,216.576609 L1.95114154,217.583874 C1.95114154,217.583874 0.565558138,233.862247 0.565558138,260.305011 Z" id="a4"></path>
                <path d="M6.72460796,164.557271 C3.52709712,141.191903 3.23568116,126.73732 3.23568116,126.73732 L87.0033368,127.428179 C87.0033368,127.428179 87.2224225,136.648038 89.3039654,162.207028 C91.3855084,187.766019 94.6321536,206.985426 94.6321536,206.985426 L14.8555189,205.091832 C14.8555189,205.091832 9.9221188,187.922639 6.72460796,164.557271 Z" id="a5" transform="translate(48.933917, 166.861373) scale(1, -1) translate(-48.933917, -166.861373) "></path>
                <path d="M24.2473596,82.7312317 C30.0163329,101.133724 39.6212617,117.958361 39.6212617,117.958361 L110.85765,120.233931 C110.85765,120.233931 105.405029,101.896452 101.559371,82.7312317 C97.713714,63.5660114 97.0227884,55.8902214 97.0227884,55.8902214 L17.0101846,53.9280911 C17.0101846,53.9280911 18.4783862,64.3287392 24.2473596,82.7312317 Z" id="a6" transform="translate(63.933917, 87.081011) scale(1, -1) translate(-63.933917, -87.081011) "></path>
                <path d="M67.2221187,47.1288783 L67.2221187,39.1293322 C67.2221187,39.1293322 66.514952,35.8532149 65.2923778,33.0985552 C64.0698035,30.3438956 55.1248992,18.0340525 49.9035614,10.140144 C47.9812521,7.23388994 44.6317599,0.983290339 44.6317599,0.983290339 L114.512904,3.57982923 C114.512904,3.57982923 117.139717,10.2397257 120.122475,15.8573739 C121.619933,18.6776474 128.051506,27.390208 131.244065,34.52904 C134.410702,41.6099089 134.344567,47.1288783 134.344567,47.1288783 L67.2221187,47.1288783 Z" id="a7" transform="translate(89.488216, 24.056084) scale(1, -1) translate(-89.488216, -24.056084) "></path>
            </g>
            <g id="line-9" transform="translate(623.000000, 2.000000)" fill="#7AC9D0" sketch:type="MSShapeGroup">
                <path d="M45.6724038,518.388918 C45.6724038,518.388918 45.6724045,509.348541 42.8717901,503.395916 C40.0711758,497.44329 33.5727287,488.140239 32.2118885,485.785318 C29.1786363,480.536303 29.0061905,475.715961 29.0061905,475.715961 L113.718448,476.693695 C113.718448,476.693695 115.1338,490.445415 116.050533,495.985635 C116.516262,498.800243 119.622209,506.489157 120.950587,510.949356 C122.236965,515.268529 122.426136,518.813525 122.426136,518.813525 L45.6724038,518.388918 Z" id="a1"></path>
                <path d="M16.1263298,432.09301 C19.6032399,448.616825 25.7681331,466.552557 25.7681331,466.552557 L112.671484,467.947012 C112.671484,467.947012 109.739733,446.440495 108.709379,435.212331 C107.769515,424.970273 106.760832,403.536348 106.760832,403.536348 L11.3190135,402.477651 C11.3190135,402.477651 12.6494197,415.569195 16.1263298,432.09301 Z" id="a2"></path>
                <path d="M4.16806264,348.978818 C6.80881877,373.253648 9.70055565,392.930791 9.70055565,392.930791 L106.228802,394.40273 C106.228802,394.40273 105.075344,370.004003 104.42947,350.392732 C103.783596,330.781461 104.429474,313.054516 104.429474,313.054516 L2.04095186,312.464567 C2.04095186,312.464567 1.52730651,324.703988 4.16806264,348.978818 Z" id="a3"></path>
                <path d="M0.943621646,259.121194 C0.943621646,236.813993 2.02317084,215.526929 2.02317084,215.526929 L103.802712,215.526929 C103.802712,215.526929 102.918872,237.705434 102.918872,259.121194 C102.918872,280.536954 103.80271,302.71546 103.80271,302.71546 L2.02317084,302.25489 C2.02317084,302.25489 0.943621646,281.428395 0.943621646,259.121194 Z" id="a4"></path>
                <path d="M5.42649689,160.748182 C8.06725302,185.023012 10.9589899,204.700155 10.9589899,204.700155 L107.487236,206.172094 C107.487236,206.172094 106.333778,181.773366 105.687904,162.162096 C105.04203,142.550825 105.687908,124.82388 105.687908,124.82388 L3.29938611,124.233931 C3.29938611,124.233931 2.78574076,136.473352 5.42649689,160.748182 Z" id="a5" transform="translate(55.373167, 165.203012) scale(1, -1) translate(-55.373167, -165.203012) "></path>
                <path d="M18.1263298,80.7307791 C21.6032399,97.2545942 27.7681331,115.190326 27.7681331,115.190326 L114.671484,116.584781 C114.671484,116.584781 111.739733,95.0782635 110.709379,83.8501004 C109.769515,73.6080422 108.760832,52.1741166 108.760832,52.1741166 L13.3190135,51.1154202 C13.3190135,51.1154202 14.6494197,64.2069639 18.1263298,80.7307791 Z" id="a6" transform="translate(63.995249, 83.850100) scale(1, -1) translate(-63.995249, -83.850100) "></path>
                <path d="M48.7082783,43.3889181 C48.7082783,43.3889181 48.708279,34.348541 45.9076647,28.3959157 C43.1070503,22.4432904 36.6086033,13.1402395 35.247763,10.7853181 C32.2145108,5.53630321 32.042065,0.715961149 32.042065,0.715961149 L116.754322,1.693695 C116.754322,1.693695 118.169674,15.4454152 119.086407,20.9856355 C119.552136,23.8002426 122.658083,31.4891574 123.986462,35.9493558 C125.272839,40.2685286 125.46201,43.8135246 125.46201,43.8135246 L48.7082783,43.3889181 Z" id="a7" transform="translate(78.752038, 22.264743) scale(1, -1) translate(-78.752038, -22.264743) "></path>
            </g>
            <g id="line-10" transform="translate(749.000000, 1.000000)" fill="#7AC9D0" sketch:type="MSShapeGroup">
                <path d="M48.4103316,519.729818 L48.0704788,477.845559 L11.3871036,477.845559 C11.3871036,477.845559 12.1197729,487.115218 13.5286016,496.757674 C14.2258045,501.529545 17.7828304,513.232732 17.7828304,513.232732 L21.1224048,519.729817 L48.4103316,519.729818 Z" id="a1"></path>
                <path d="M10.6747944,469.698914 C10.6747944,469.698914 9.90223765,462.746556 7.63224339,440.239609 C5.36224913,417.732663 5.01573776,404.53563 5.01573776,404.53563 L47.7589639,404.740659 L47.8388453,469.698913 L10.6747944,469.698914 Z" id="a2"></path>
                <path d="M2.502994,361.058179 C3.50813843,387.671731 4.61228681,395.835927 4.61228681,395.835927 L47.3099257,395.835925 L47.3099252,313.970597 L1.14709865,313.970597 C1.14709865,313.970597 1.49784958,334.444627 2.502994,361.058179 Z" id="a3"></path>
                <path d="M0.57333329,260.645378 C0.57333329,290.082641 1.20999851,304.050247 1.20999851,304.050247 L47.4082942,304.050247 L47.4082951,216.431739 L1.20999851,216.431739 C1.20999851,216.431739 0.57333329,231.208114 0.57333329,260.645378 Z" id="a4"></path>
                <path d="M2.17285377,172.207678 C3.1779982,198.82123 4.28214658,206.985426 4.28214658,206.985426 L46.9797855,206.985423 L46.979785,125.120095 L0.816958414,125.120095 C0.816958414,125.120095 1.16770935,145.594126 2.17285377,172.207678 Z" id="a5" transform="translate(23.898372, 166.052761) scale(1, -1) translate(-23.898372, -166.052761) "></path>
                <path d="M10.4760151,116.278705 C10.4760151,116.278705 9.7034583,109.326346 7.43346404,86.8193997 C5.16346978,64.3124532 4.81695841,51.1154202 4.81695841,51.1154202 L47.5601845,51.3204492 L47.6400659,116.278703 L10.4760151,116.278705 Z" id="a6" transform="translate(26.228512, 83.697062) scale(1, -1) translate(-26.228512, -83.697062) "></path>
                <path d="M48.4462062,42.7298176 L48.1063533,0.845559018 L11.4229781,0.845559018 C11.4229781,0.845559018 12.1556474,10.1152181 13.5644761,19.7576741 C14.2616791,24.5295449 17.818705,36.2327317 17.818705,36.2327317 L21.1582793,42.7298173 L48.4462062,42.7298176 Z" id="a7" transform="translate(29.934592, 21.787688) scale(1, -1) translate(-29.934592, -21.787688) "></path>
            </g>
            <g id="line-11" transform="translate(870.500000, 261.000000) scale(-1, 1) translate(-870.500000, -261.000000) translate(846.000000, 1.000000)" fill="#7AC9D0" sketch:type="MSShapeGroup">
                <path d="M48.4103316,519.729818 L48.0704788,477.845559 L11.3871036,477.845559 C11.3871036,477.845559 12.1197729,487.115218 13.5286016,496.757674 C14.2258045,501.529545 17.7828304,513.232732 17.7828304,513.232732 L21.1224048,519.729817 L48.4103316,519.729818 Z" id="a1"></path>
                <path d="M10.6747944,469.698914 C10.6747944,469.698914 9.90223765,462.746556 7.63224339,440.239609 C5.36224913,417.732663 5.01573776,404.53563 5.01573776,404.53563 L47.7589639,404.740659 L47.8388453,469.698913 L10.6747944,469.698914 Z" id="a2"></path>
                <path d="M2.502994,361.058179 C3.50813843,387.671731 4.61228681,395.835927 4.61228681,395.835927 L47.3099257,395.835925 L47.3099252,313.970597 L1.14709865,313.970597 C1.14709865,313.970597 1.49784958,334.444627 2.502994,361.058179 Z" id="a3"></path>
                <path d="M0.57333329,260.645378 C0.57333329,290.082641 1.20999851,304.050247 1.20999851,304.050247 L47.4082942,304.050247 L47.4082951,216.431739 L1.20999851,216.431739 C1.20999851,216.431739 0.57333329,231.208114 0.57333329,260.645378 Z" id="a4"></path>
                <path d="M2.17285377,172.207678 C3.1779982,198.82123 4.28214658,206.985426 4.28214658,206.985426 L46.9797855,206.985423 L46.979785,125.120095 L0.816958414,125.120095 C0.816958414,125.120095 1.16770935,145.594126 2.17285377,172.207678 Z" id="a5" transform="translate(23.898372, 166.052761) scale(1, -1) translate(-23.898372, -166.052761) "></path>
                <path d="M10.4760151,116.278705 C10.4760151,116.278705 9.7034583,109.326346 7.43346404,86.8193997 C5.16346978,64.3124532 4.81695841,51.1154202 4.81695841,51.1154202 L47.5601845,51.3204492 L47.6400659,116.278703 L10.4760151,116.278705 Z" id="a6" transform="translate(26.228512, 83.697062) scale(1, -1) translate(-26.228512, -83.697062) "></path>
                <path d="M48.4462062,42.7298176 L48.1063533,0.845559018 L11.4229781,0.845559018 C11.4229781,0.845559018 12.1556474,10.1152181 13.5644761,19.7576741 C14.2616791,24.5295449 17.818705,36.2327317 17.818705,36.2327317 L21.1582793,42.7298173 L48.4462062,42.7298176 Z" id="a7" transform="translate(29.934592, 21.787688) scale(1, -1) translate(-29.934592, -21.787688) "></path>
            </g>
            <g id="line-12" transform="translate(958.000000, 261.500000) scale(-1, 1) translate(-958.000000, -261.500000) translate(895.000000, 2.000000)" fill="#7AC9D0" sketch:type="MSShapeGroup">
                <path d="M45.6724038,518.388918 C45.6724038,518.388918 45.6724045,509.348541 42.8717901,503.395916 C40.0711758,497.44329 33.5727287,488.140239 32.2118885,485.785318 C29.1786363,480.536303 29.0061905,475.715961 29.0061905,475.715961 L113.718448,476.693695 C113.718448,476.693695 115.1338,490.445415 116.050533,495.985635 C116.516262,498.800243 119.622209,506.489157 120.950587,510.949356 C122.236965,515.268529 122.426136,518.813525 122.426136,518.813525 L45.6724038,518.388918 Z" id="a1"></path>
                <path d="M16.1263298,432.09301 C19.6032399,448.616825 25.7681331,466.552557 25.7681331,466.552557 L112.671484,467.947012 C112.671484,467.947012 109.739733,446.440495 108.709379,435.212331 C107.769515,424.970273 106.760832,403.536348 106.760832,403.536348 L11.3190135,402.477651 C11.3190135,402.477651 12.6494197,415.569195 16.1263298,432.09301 Z" id="a2"></path>
                <path d="M4.16806264,348.978818 C6.80881877,373.253648 9.70055565,392.930791 9.70055565,392.930791 L106.228802,394.40273 C106.228802,394.40273 105.075344,370.004003 104.42947,350.392732 C103.783596,330.781461 104.429474,313.054516 104.429474,313.054516 L2.04095186,312.464567 C2.04095186,312.464567 1.52730651,324.703988 4.16806264,348.978818 Z" id="a3"></path>
                <path d="M0.943621646,259.121194 C0.943621646,236.813993 2.02317084,215.526929 2.02317084,215.526929 L103.802712,215.526929 C103.802712,215.526929 102.918872,237.705434 102.918872,259.121194 C102.918872,280.536954 103.80271,302.71546 103.80271,302.71546 L2.02317084,302.25489 C2.02317084,302.25489 0.943621646,281.428395 0.943621646,259.121194 Z" id="a4"></path>
                <path d="M5.42649689,160.748182 C8.06725302,185.023012 10.9589899,204.700155 10.9589899,204.700155 L107.487236,206.172094 C107.487236,206.172094 106.333778,181.773366 105.687904,162.162096 C105.04203,142.550825 105.687908,124.82388 105.687908,124.82388 L3.29938611,124.233931 C3.29938611,124.233931 2.78574076,136.473352 5.42649689,160.748182 Z" id="a5" transform="translate(55.373167, 165.203012) scale(1, -1) translate(-55.373167, -165.203012) "></path>
                <path d="M18.1263298,80.7307791 C21.6032399,97.2545942 27.7681331,115.190326 27.7681331,115.190326 L114.671484,116.584781 C114.671484,116.584781 111.739733,95.0782635 110.709379,83.8501004 C109.769515,73.6080422 108.760832,52.1741166 108.760832,52.1741166 L13.3190135,51.1154202 C13.3190135,51.1154202 14.6494197,64.2069639 18.1263298,80.7307791 Z" id="a6" transform="translate(63.995249, 83.850100) scale(1, -1) translate(-63.995249, -83.850100) "></path>
                <path d="M48.7082783,43.3889181 C48.7082783,43.3889181 48.708279,34.348541 45.9076647,28.3959157 C43.1070503,22.4432904 36.6086033,13.1402395 35.247763,10.7853181 C32.2145108,5.53630321 32.042065,0.715961149 32.042065,0.715961149 L116.754322,1.693695 C116.754322,1.693695 118.169674,15.4454152 119.086407,20.9856355 C119.552136,23.8002426 122.658083,31.4891574 123.986462,35.9493558 C125.272839,40.2685286 125.46201,43.8135246 125.46201,43.8135246 L48.7082783,43.3889181 Z" id="a7" transform="translate(78.752038, 22.264743) scale(1, -1) translate(-78.752038, -22.264743) "></path>
            </g>
            <g id="line-13" transform="translate(1057.500000, 261.500000) scale(-1, 1) translate(-1057.500000, -261.500000) translate(990.000000, 1.000000)" fill="#7AC9D0" sketch:type="MSShapeGroup">
                <path d="M65.1862441,520.128878 L65.1862441,512.129332 C65.1862441,512.129332 64.4790775,508.853215 63.2565032,506.098555 C62.033929,503.343896 53.0890247,491.034053 47.8676869,483.140144 C45.9453775,480.23389 42.5958854,473.98329 42.5958854,473.98329 L112.47703,476.579829 C112.47703,476.579829 115.103843,483.239726 118.0866,488.857374 C119.584058,491.677647 126.015631,500.390208 129.20819,507.52904 C132.374827,514.609909 132.308692,520.128878 132.308692,520.128878 L65.1862441,520.128878 Z" id="a1"></path>
                <path d="M23.2473596,429.861608 C29.0163329,448.2641 38.6212617,465.088737 38.6212617,465.088737 L109.85765,467.364306 C109.85765,467.364306 104.405029,449.026828 100.559371,429.861608 C96.713714,410.696387 96.0227884,403.020597 96.0227884,403.020597 L16.0101846,401.058467 C16.0101846,401.058467 17.4783862,411.459115 23.2473596,429.861608 Z" id="a2"></path>
                <path d="M6.107203,350.650698 C2.90969217,327.28533 2.6182762,312.830746 2.6182762,312.830746 L86.3859318,313.521605 C86.3859318,313.521605 86.6050175,322.741464 88.6865605,348.300455 C90.7681034,373.859445 94.0147486,393.078852 94.0147486,393.078852 L14.238114,391.185259 C14.238114,391.185259 9.30471384,374.016065 6.107203,350.650698 Z" id="a3"></path>
                <path d="M0.565558138,260.305011 C0.565558138,286.747775 1.95114154,302.762424 1.95114154,302.762424 L86.0558917,303.554096 C86.0558917,303.554096 85.3251101,285.700305 85.3251101,260.305011 C85.3251101,234.909717 86.0558917,216.576609 86.0558917,216.576609 L1.95114154,217.583874 C1.95114154,217.583874 0.565558138,233.862247 0.565558138,260.305011 Z" id="a4"></path>
                <path d="M6.72460796,164.557271 C3.52709712,141.191903 3.23568116,126.73732 3.23568116,126.73732 L87.0033368,127.428179 C87.0033368,127.428179 87.2224225,136.648038 89.3039654,162.207028 C91.3855084,187.766019 94.6321536,206.985426 94.6321536,206.985426 L14.8555189,205.091832 C14.8555189,205.091832 9.9221188,187.922639 6.72460796,164.557271 Z" id="a5" transform="translate(48.933917, 166.861373) scale(1, -1) translate(-48.933917, -166.861373) "></path>
                <path d="M24.2473596,82.7312317 C30.0163329,101.133724 39.6212617,117.958361 39.6212617,117.958361 L110.85765,120.233931 C110.85765,120.233931 105.405029,101.896452 101.559371,82.7312317 C97.713714,63.5660114 97.0227884,55.8902214 97.0227884,55.8902214 L17.0101846,53.9280911 C17.0101846,53.9280911 18.4783862,64.3287392 24.2473596,82.7312317 Z" id="a6" transform="translate(63.933917, 87.081011) scale(1, -1) translate(-63.933917, -87.081011) "></path>
                <path d="M67.2221187,47.1288783 L67.2221187,39.1293322 C67.2221187,39.1293322 66.514952,35.8532149 65.2923778,33.0985552 C64.0698035,30.3438956 55.1248992,18.0340525 49.9035614,10.140144 C47.9812521,7.23388994 44.6317599,0.983290339 44.6317599,0.983290339 L114.512904,3.57982923 C114.512904,3.57982923 117.139717,10.2397257 120.122475,15.8573739 C121.619933,18.6776474 128.051506,27.390208 131.244065,34.52904 C134.410702,41.6099089 134.344567,47.1288783 134.344567,47.1288783 L67.2221187,47.1288783 Z" id="a7" transform="translate(89.488216, 24.056084) scale(1, -1) translate(-89.488216, -24.056084) "></path>
            </g>
            <g id="line-14" transform="translate(1138.000000, 262.000000) scale(-1, 1) translate(-1138.000000, -262.000000) translate(1071.000000, 2.000000)" fill="#7AC9D0" sketch:type="MSShapeGroup">
                <path d="M80.2764797,519.11542 L132.223108,519.11542 L131.78391,510.645179 C131.78391,510.645179 129.490109,505.291675 125.599587,499.401718 C121.630771,493.393228 116.041463,486.811744 113.74439,483.27689 C109.195558,476.276917 106.808202,471.364176 106.808202,471.364176 L69.3017664,470.446043 C69.3017664,470.446043 73.3884886,478.959303 75.0249304,483.27689 C77.0467264,488.611195 80.2764798,499.401719 80.2764798,499.401719 L80.2764797,519.11542 Z" id="a1"></path>
                <path d="M52.8481695,446.212195 C45.6737111,436.744204 36.2860369,424.953643 32.2477425,417.811768 C24.7097457,404.480538 23.7490598,398.783373 23.7490598,398.783373 L82.4276239,400.173943 C82.4276239,400.173943 85.6017667,416.674468 90.0335447,430.914954 C94.4653226,445.15544 102.885404,463.046537 102.885404,463.046537 L63.4409566,460.89421 C63.4409566,460.89421 59.0657619,454.417429 52.8481695,446.212195 Z" id="a2"></path>
                <path d="M19.6382919,388.833345 C19.6382919,388.833345 13.0261422,367.584985 8.7475572,347.384557 C4.46897224,327.184129 3.38904146,310.886308 3.38904146,310.886308 L68.8100188,311.781108 C68.8100188,311.781108 69.7208133,326.037343 71.9892459,344.337892 C74.2576785,362.63844 79.769321,390.637803 79.769321,390.637803 L19.6382919,388.833345 Z" id="a3"></path>
                <path d="M0.67745173,259.125121 C0.67745173,234.68244 2.40198934,217.053501 2.40198934,217.053501 L68.8661999,216.267722 C68.8661999,216.267722 67.5610272,235.499236 67.5610272,256.693434 C67.5610272,277.887633 68.8661999,301.98252 68.8661999,301.98252 L2.40198934,301.074118 C2.40198934,301.074118 0.67745173,283.567801 0.67745173,259.125121 Z" id="a4"></path>
                <path d="M20.434529,205.180967 C20.434529,205.180967 13.8223793,183.932608 9.54379434,163.73218 C5.26520938,143.531752 4.1852786,127.233931 4.1852786,127.233931 L69.6062559,128.128731 C69.6062559,128.128731 70.5170504,142.384966 72.7854831,160.685514 C75.0539157,178.986063 80.5655581,206.985426 80.5655581,206.985426 L20.434529,205.180967 Z" id="a5" transform="translate(42.375418, 167.109678) scale(1, -1) translate(-42.375418, -167.109678) "></path>
                <path d="M54.8481695,103.399589 C47.6737111,93.9315974 38.2860369,82.1410371 34.2477425,74.9991619 C26.7097457,61.6679317 25.7490598,55.9707672 25.7490598,55.9707672 L84.4276239,57.3613373 C84.4276239,57.3613373 87.6017667,73.8618614 92.0335447,88.1023475 C96.4653226,102.342834 104.885404,120.233931 104.885404,120.233931 L65.4409566,118.081604 C65.4409566,118.081604 61.0657619,111.604823 54.8481695,103.399589 Z" id="a6" transform="translate(65.317232, 88.102349) scale(1, -1) translate(-65.317232, -88.102349) "></path>
                <path d="M81.3123542,49.1154197 L133.258982,49.1154202 L132.819785,40.6451793 C132.819785,40.6451793 130.525983,35.2916751 126.635462,29.4017185 C122.666645,23.3932282 117.077338,16.811744 114.780264,13.2768901 C110.231432,6.27691684 107.844077,1.36417564 107.844077,1.36417564 L70.3376409,0.446043351 C70.3376409,0.446043351 74.4243631,8.95930314 76.060805,13.2768901 C78.0826009,18.6111949 81.3123543,29.4017188 81.3123543,29.4017188 L81.3123542,49.1154197 Z" id="a7" transform="translate(101.798312, 24.780732) scale(1, -1) translate(-101.798312, -24.780732) "></path>
            </g>
            <g id="line-15" transform="translate(1258.500000, 261.500000) scale(-1, 1) translate(-1258.500000, -261.500000) translate(1184.000000, 2.000000)" fill="#4962A5" sketch:type="MSShapeGroup">
                <path d="M90.7539028,518.424411 L90.7539025,483.046864 C90.7539025,483.046864 89.8616475,480.062998 88.568622,478.425015 C87.0539132,476.506207 84.7832824,473.929194 82.2996811,471.476151 C79.0724328,468.288612 76.425958,464.896461 76.425958,464.896461 L118.425687,466.991184 C118.425687,466.991184 124.626903,476.863417 127.902395,481.440473 C131.784436,486.8651 139.898288,496.996233 139.898288,496.996233 C139.898288,496.996233 142.059383,501.612849 142.952485,503.743984 C144.02566,506.304809 145.797121,511.072115 145.797121,511.072115 L145.996067,518.424409 L90.7539028,518.424411 Z" id="a1"></path>
                <path d="M43.4381624,424.604704 C34.4361341,408.087532 28.6523747,395.24838 28.6523747,395.24838 L84.2485288,397.202037 C84.2485288,397.202037 88.1558413,409.186028 94.762012,426.098608 C101.368183,443.011189 110.938754,456.322962 110.938754,456.322962 L64.876912,453.93295 C64.876912,453.93295 52.4401908,441.121876 43.4381624,424.604704 Z" id="a2"></path>
                <path d="M9.65558087,340.689407 C13.9691004,359.703624 24.2089514,384.135842 24.2089514,384.135842 L81.0993994,386.368218 C81.0993994,386.368218 73.958281,356.757254 71.4683789,342.129522 C69.619394,331.267065 67.6432929,311.050749 67.6432929,311.050749 L5.03357185,309.845047 C5.03357185,309.845047 5.3420614,321.67519 9.65558087,340.689407 Z" id="a3"></path>
                <path d="M0.989499638,259.253972 C0.939031177,283.289247 4.29338484,299.214732 4.29338484,299.214732 L66.0978988,300.458696 C66.0978988,300.458696 64.8058685,280.69375 64.8058685,259.253972 C64.8058685,237.814195 67.660003,217.927942 67.660003,217.927942 L4.60122866,219.416807 C4.60122866,219.416807 1.0399681,235.218698 0.989499638,259.253972 Z" id="a4"></path>
                <path d="M11.6555809,162.52072 C15.9691004,181.534938 26.2089514,205.967156 26.2089514,205.967156 L83.0993994,208.199531 C83.0993994,208.199531 75.958281,178.588567 73.4683789,163.960835 C71.619394,153.098378 69.6432929,132.882063 69.6432929,132.882063 L7.03357185,131.67636 C7.03357185,131.67636 7.3420614,143.506503 11.6555809,162.52072 Z" id="a5" transform="translate(45.066486, 169.937946) scale(1, -1) translate(-45.066486, -169.937946) "></path>
                <path d="M46.1102571,91.9068373 C37.1082288,75.3896655 31.3244694,62.5505136 31.3244694,62.5505136 L86.9206235,64.5041702 C86.9206235,64.5041702 90.827936,76.4881608 97.4341067,93.4007413 C104.040277,110.313322 113.610849,123.625095 113.610849,123.625095 L67.5490067,121.235083 C67.5490067,121.235083 55.1122855,108.424009 46.1102571,91.9068373 Z" id="a6" transform="translate(72.467659, 93.087804) scale(1, -1) translate(-72.467659, -93.087804) "></path>
                <path d="M93.4273442,54.1461328 L93.4273438,18.7685861 C93.4273438,18.7685861 92.5350889,15.7847199 91.2420634,14.1467365 C89.7273546,12.2279284 87.4567238,9.65091563 84.9731225,7.19787299 C81.7458741,4.01033338 79.0993994,0.618182535 79.0993994,0.618182535 L121.099128,2.7129056 C121.099128,2.7129056 127.300344,12.5851386 130.575836,17.1621946 C134.457878,22.5868215 142.57173,32.7179545 142.57173,32.7179545 C142.57173,32.7179545 144.732824,37.3345705 145.625927,39.4657053 C146.699102,42.0265312 148.470562,46.7938368 148.470562,46.7938368 L148.669508,54.1461312 L93.4273442,54.1461328 Z" id="a7" transform="translate(113.884454, 27.382158) scale(1, -1) translate(-113.884454, -27.382158) "></path>
            </g>
            <g id="line-16" transform="translate(1329.000000, 262.000000) scale(-1, 1) translate(-1329.000000, -262.000000) translate(1255.000000, 3.000000)" fill="#4962A5" sketch:type="MSShapeGroup">
                <path d="M92.5812416,517.029415 L92.5812416,476.080429 C92.5812416,476.080429 91.7825623,469.5413 89.8800245,466.509794 C87.9774866,463.478289 85.762631,459.625999 85.762631,459.625999 L123.6753,461.667787 C123.6753,461.667787 128.98531,467.589371 134.332772,472.895368 C139.680234,478.201365 145.916012,482.450601 145.916012,482.450601 L145.916012,517.029415 L92.5812416,517.029415 Z" id="a1"></path>
                <path d="M47.8430278,415.839949 C58.0459974,431.074686 75.2521456,446.950091 75.2521456,446.950091 L115.359821,450.977625 C115.359821,450.977625 105.876938,437.970209 96.6323164,421.154987 C87.3876951,404.339766 82.9037969,393.636547 82.9037969,393.636547 L34.5761678,391.33235 C34.5761678,391.33235 37.6400583,400.605211 47.8430278,415.839949 Z" id="a2"></path>
                <path d="M12.2276966,340.607531 C17.9218151,361.13114 28.4446159,380.257561 28.4446159,380.257561 L79.1452958,382.906555 C79.1452958,382.906555 69.5250036,356.511252 65.3715002,336.954552 C61.2179968,317.397853 60.2137864,308.928704 60.2137864,308.928704 L5.40714582,307.652506 C5.40714582,307.652506 6.53357812,320.083922 12.2276966,340.607531 Z" id="a3"></path>
                <path d="M0.767920521,258.081738 C0.767920521,281.084195 4.39452675,297.062321 4.39452675,297.062321 L59.0282222,298.143779 C59.0282222,298.143779 57.0456648,276.690843 57.2223578,256.622628 C57.3990507,236.554414 60.1222694,218.0197 60.1222694,218.0197 L5.08002284,219.435324 C5.08002284,219.435324 0.767920521,235.079282 0.767920521,258.081738 Z" id="a4"></path>
                <path d="M14.2276966,166.700976 C19.9218151,187.224585 30.4446159,206.351006 30.4446159,206.351006 L81.1452958,209 C81.1452958,209 71.5250036,182.604697 67.3715002,163.047997 C63.2179968,143.491297 62.2137864,135.022148 62.2137864,135.022148 L7.40714582,133.74595 C7.40714582,133.74595 8.53357812,146.177367 14.2276966,166.700976 Z" id="a5" transform="translate(44.276221, 171.372975) scale(1, -1) translate(-44.276221, -171.372975) "></path>
                <path d="M51.3225286,89.4874185 C61.5254981,104.722156 78.7316463,120.597561 78.7316463,120.597561 L118.839322,124.625095 C118.839322,124.625095 109.356438,111.617679 100.111817,94.8024571 C90.8671958,77.9872354 86.3832976,67.2840164 86.3832976,67.2840164 L38.0556685,64.9798196 C38.0556685,64.9798196 41.119559,74.2526811 51.3225286,89.4874185 Z" id="a6" transform="translate(78.447495, 94.802457) scale(1, -1) translate(-78.447495, -94.802457) "></path>
                <path d="M94.5812416,57.5505136 L94.5812416,16.6015276 C94.5812416,16.6015276 93.7825623,10.0623988 91.8800245,7.0308932 C89.9774866,3.99938762 87.762631,0.14709794 87.762631,0.14709794 L125.6753,2.1888862 C125.6753,2.1888862 130.98531,8.11047017 136.332772,13.4164671 C141.680234,18.722464 147.916012,22.9716997 147.916012,22.9716997 L147.916012,57.5505136 L94.5812416,57.5505136 Z" id="a7" transform="translate(117.839322, 28.848806) scale(1, -1) translate(-117.839322, -28.848806) "></path>
            </g>
            <g id="line-17" transform="translate(1392.000000, 261.000000) scale(-1, 1) translate(-1392.000000, -261.000000) translate(1322.000000, 2.000000)" fill="#4962A5" sketch:type="MSShapeGroup">
                <path d="M80.0494385,517.555216 L80.2191313,454.622886 L123.627659,457.832453 C123.627659,457.832453 128.019012,460.856235 132.02837,466.351764 C136.037727,471.847293 136.885598,477.055187 136.885598,477.055187 L136.885597,517.555217 L80.0494385,517.555216 Z" id="a1"></path>
                <path d="M78.7180123,443.094052 C78.7180123,443.094052 78.6480806,431.15843 65.58442,413.204069 C52.5207594,395.249707 47.0827606,389.735695 47.0827606,389.735695 L75.4701126,391.47677 C75.4701126,391.47677 80.0938537,401.967769 90.072892,417.875091 C100.05193,433.782413 112.322011,446.014487 112.322011,446.014487 L78.7180123,443.094052 Z" id="a2"></path>
                <path d="M38.2284664,378.558811 C38.2284664,378.558811 28.5894664,367.168357 19.4974416,346.411392 C10.4054168,325.654426 6.55121752,307.435866 6.55121752,307.435866 L48.9839873,308.607974 C48.9839873,308.607974 55.6561474,342.705585 60.6909565,356.020164 C65.7257656,369.334743 70.3085941,380.219425 70.3085941,380.219425 L38.2284664,378.558811 Z" id="a3"></path>
                <path d="M4.71135474,297.078496 C4.71135474,297.078496 0.464021211,279.27554 0.464021212,258.653119 C0.464021213,238.030698 4.71135474,221.517208 4.71135474,221.517208 L48.8002296,220.758625 C48.8002296,220.758625 45.7684074,236.883023 45.7684074,258.653119 C45.7684074,280.423215 48.8002296,298.053258 48.8002296,298.053258 L4.71135474,297.078496 Z" id="a4"></path>
                <path d="M40.2284664,208.799305 C40.2284664,208.799305 30.5894664,197.408852 21.4974416,176.651886 C12.4054168,155.89492 8.55121752,137.67636 8.55121752,137.67636 L50.9839873,138.848468 C50.9839873,138.848468 57.6561474,172.946079 62.6909565,186.260658 C67.7257656,199.575237 72.3085941,210.459919 72.3085941,210.459919 L40.2284664,208.799305 Z" id="a5" transform="translate(40.429906, 174.068140) scale(1, -1) translate(-40.429906, -174.068140) "></path>
                <path d="M80.5182709,125.755926 C80.5182709,125.755926 80.4483392,113.820304 67.3846786,95.8659427 C54.321018,77.9115812 48.8830192,72.3975684 48.8830192,72.3975684 L77.2703712,74.1386439 C77.2703712,74.1386439 81.8941124,84.6296432 91.8731506,100.536965 C101.852189,116.444287 114.122269,128.67636 114.122269,128.67636 L80.5182709,125.755926 Z" id="a6" transform="translate(81.502644, 100.536964) scale(1, -1) translate(-81.502644, -100.536964) "></path>
                <path d="M82.3091363,63.5505124 L82.4788291,0.618182535 L125.887357,3.8277496 C125.887357,3.8277496 130.27871,6.85153138 134.288068,12.3470606 C138.297425,17.8425897 139.145296,23.0504836 139.145296,23.0504836 L139.145295,63.5505136 L82.3091363,63.5505124 Z" id="a7" transform="translate(110.727216, 32.084348) scale(1, -1) translate(-110.727216, -32.084348) "></path>
            </g>
            <g id="line-18" transform="translate(1501.500000, 260.000000) scale(-1, 1) translate(-1501.500000, -260.000000) translate(1444.000000, 0.000000)" fill="#4962A5" sketch:type="MSShapeGroup">
                <rect id="a1" x="55" y="453" width="58" height="67"></rect>
                <path d="M55.9758151,408.655097 C49.8746197,395.163279 40.8652736,382.634368 40.8652736,382.634368 L62.7670493,384.28084 C62.7670493,384.28084 71.8878047,403.946745 77.9081147,413.269844 C84.7327518,423.83853 101.301891,443.956195 101.301891,443.956195 L56.9747983,443.852597 C56.9747983,443.852597 57.0517016,411.034249 55.9758151,408.655097 Z" id="a2"></path>
                <path d="M33.7993198,372.958106 C33.7993198,372.958106 22.5039585,354.702634 18.6332784,345.047637 C16.2578769,339.122452 13.1095349,332.547 10.8587864,324.852456 C8.28435084,316.051336 6.47418161,306.559339 6.47418161,306.559339 L36.7113413,307.715219 C36.7113413,307.715219 40.3723646,327.955053 43.3451544,337.629262 C47.3149871,350.548101 57.8461318,375.362143 57.8461318,375.362143 L33.7993198,372.958106 Z" id="a3"></path>
                <path d="M4.20581982,296.102586 C4.20581982,296.102586 0.520823153,282.277535 0.521147716,260.570527 C0.521472278,238.863518 4.20581982,225.418865 4.20581982,225.418865 L35.5352068,224.337582 C35.5352068,224.337582 33.2745702,240.994004 33.2745695,260.570527 C33.2745688,280.14705 35.5405246,296.803474 35.5405246,296.803474 L4.20581982,296.102586 Z" id="a4"></path>
                <path d="M35.1796877,213.037681 C35.1796877,213.037681 23.8843264,194.782209 20.0136463,185.127212 C17.6382448,179.202027 14.4899028,172.626575 12.2391543,164.932031 C9.66471873,156.130911 7.8545495,146.638914 7.8545495,146.638914 L38.0917092,147.794794 C38.0917092,147.794794 41.7527325,168.034628 44.7255223,177.708837 C48.695355,190.627675 59.2264997,215.441718 59.2264997,215.441718 L35.1796877,213.037681 Z" id="a5" transform="translate(33.540525, 181.040316) scale(1, -1) translate(-33.540525, -181.040316) "></path>
                <path d="M58.4362733,102.659644 C52.3350779,89.1678256 43.3257318,76.6389144 43.3257318,76.6389144 L65.2275076,78.2853863 C65.2275076,78.2853863 74.3482629,97.9512913 80.3685729,107.27439 C87.1932101,117.843076 103.762349,137.960741 103.762349,137.960741 L59.4352565,137.857143 C59.4352565,137.857143 59.5121598,105.038795 58.4362733,102.659644 Z" id="a6" transform="translate(73.544040, 107.299828) scale(1, -1) translate(-73.544040, -107.299828) "></path>
                <rect id="a7" transform="translate(85.846132, 34.460741) scale(1, -1) translate(-85.846132, -34.460741) " x="56.8461318" y="0.960741391" width="58" height="67"></rect>
            </g>
            <g id="line-19" transform="translate(1559.000000, 260.500000) scale(-1, 1) translate(-1559.000000, -260.500000) translate(1514.000000, 1.000000)" fill="#4962A5" sketch:type="MSShapeGroup">
                <rect id="a1" x="30" y="452" width="58" height="67"></rect>
                <path d="M30.9757867,376.443357 L69.2673555,379.787174 C69.2673555,379.787174 81.0849552,394.708095 84.5795465,401.550202 C87.2974576,406.871637 88.3257318,415.060521 88.3257318,415.060521 L88.3257318,442.999997 L30.9757867,442.999997 L30.9757867,376.443357 Z" id="a2"></path>
                <path d="M29.6382596,368.469993 C29.6382596,368.469993 23.9292891,347.085393 20.3791678,336.362404 C16.7097875,325.279199 8.21930633,303.57684 8.21930633,303.57684 L37.344539,305.187669 C37.344539,305.187669 42.352569,325.523268 45.8837579,334.998514 C50.5510122,347.522167 63.4362557,370.957272 63.4362557,370.957272 L29.6382596,368.469993 Z" id="a3"></path>
                <path d="M0.583657745,259.665131 C0.670143442,277.313683 7.57697046,294.137247 7.57697046,294.137247 L35.8315929,295.11795 C35.8315929,295.11795 31.0713831,277.79584 30.9895425,259.665131 C30.907702,241.534423 35.3794862,224.212315 35.3794862,224.212315 L7.10164374,225.238092 C7.10164374,225.238092 0.497172048,242.016579 0.583657745,259.665131 Z" id="a4"></path>
                <path d="M30.6420715,213.266146 C30.6420715,213.266146 24.933101,191.881546 21.3829797,181.158557 C17.7135994,170.075352 9.22311822,148.372994 9.22311822,148.372994 L38.3483509,149.983822 C38.3483509,149.983822 43.3563809,170.319421 46.8875698,179.794667 C51.5548241,192.31832 64.4400676,215.753425 64.4400676,215.753425 L30.6420715,213.266146 Z" id="a5" transform="translate(36.831593, 182.063209) scale(1, -1) translate(-36.831593, -182.063209) "></path>
                <path d="M32.6258417,75.6389144 L70.9174104,78.9827323 C70.9174104,78.9827323 82.7350102,93.9036529 86.2296014,100.74576 C88.9475125,106.067195 89.9757867,114.256079 89.9757867,114.256079 L89.9757867,142.195555 L32.6258417,142.195555 L32.6258417,75.6389144 Z" id="a6" transform="translate(61.300814, 108.917235) scale(1, -1) translate(-61.300814, -108.917235) "></path>
                <rect id="a7" transform="translate(60.975787, 33.822885) scale(1, -1) translate(-60.975787, -33.822885) " x="31.9757867" y="0.3228847" width="58" height="67"></rect>
            </g>
            <g id="line-20" transform="translate(1613.500000, 260.500000) scale(-1, 1) translate(-1613.500000, -260.500000) translate(1583.000000, 1.000000)" fill="#4962A5" sketch:type="MSShapeGroup">
                <rect id="a1" x="0" y="452" width="58" height="67"></rect>
                <path d="M0,376 L56.060482,376 L58,381.862041 L58,443 L0,443 L0,376 Z" id="a2"></path>
                <path d="M0,301.236188 L35.2638283,303.244083 C35.2638283,303.244083 37.4646904,309.222199 40.0387611,317.049697 C42.7486957,325.290343 47.600358,339.075398 51.364254,351.455936 C53.8078238,359.493542 55.458519,369 55.458519,369 L0,369 L0,301.236188 Z" id="a3"></path>
                <path d="M0,226.982121 L33.4264297,225.907411 C33.4264297,225.907411 27.8825893,241.033264 27.8825893,259.816083 C27.8825893,278.598903 33.4264297,293.724754 33.4264297,293.724754 L0,291.946373 L0,226.982121 Z" id="a4"></path>
                <path d="M2,150.061287 L37.2638283,152.069182 C37.2638283,152.069182 39.4646904,158.047298 42.0387611,165.874796 C44.7486957,174.115443 49.600358,187.900497 53.364254,200.281036 C55.8078238,208.318641 57.458519,217.825099 57.458519,217.825099 L2,217.825099 L2,150.061287 Z" id="a5" transform="translate(29.729259, 183.943193) scale(1, -1) translate(-29.729259, -183.943193) "></path>
                <path d="M2.42642975,75.6389144 L58.4869118,75.6389144 L60.4264297,81.5009549 L60.4264297,142.638914 L2.42642975,142.638914 L2.42642975,75.6389144 Z" id="a6" transform="translate(31.426430, 109.138914) scale(1, -1) translate(-31.426430, -109.138914) "></path>
                <rect id="a7" transform="translate(31.426430, 33.904098) scale(1, -1) translate(-31.426430, -33.904098) " x="2.42642975" y="0.404097935" width="58" height="67"></rect>
            </g>
        </g>
        <g id="text" sketch:type="MSLayerGroup" transform="translate(111.000000, 209.000000)" fill="#C5FAE4">
            <g id="c1" transform="translate(0.000000, 6.000000)" sketch:type="MSShapeGroup">
                <path d="M17.6245601,0.308576605 L22.7189472,6.90978385 L66.0508755,6.90978385 L72.7430752,0.308576605 L17.6245601,0.308576605 Z" id="x1"></path>
                <path d="M0.675484639,53.1109869 L9.68659125,7.7003004 L15.8054157,15.0656378 L9.68659137,46.0775854 L0.675484639,53.1109869 Z" id="x2"></path>
                <path d="M20.5192448,47.9950763 L18.3810297,37.6021196 L24.3173162,21.8656836 L26.5734059,31.9612085 L20.5192448,47.9950763 Z" id="x3" transform="translate(22.477218, 34.930380) scale(-1, 1) translate(-22.477218, -34.930380) "></path>
                <path d="M36.3824652,20.3497445 L44.312362,20.3497445 L40.2682584,47.3796536 L32.1423582,47.3796536 L36.3824652,20.3497445 Z" id="x4"></path>
                <path d="M46.6972941,48.5063282 L47.8644033,37.0607134 L60.0172737,21.0062858 L58.0346287,32.987826 L46.6972941,48.5063282 Z" id="x5"></path>
                <path d="M71.2110324,55.6823668 L65.0050705,48.5933661 L69.9757342,17.6947946 L77.5088282,10.3844313 L71.2110324,55.6823668 Z" id="x6"></path>
                <path d="M16.4765104,68.2251897 L28.9357212,68.2251897 L28.9357212,60.2452636 L16.4765104,60.2452636 L11.2851721,64.2352267 L16.4765104,68.2251897 Z" id="x7"></path>
                <path d="M45.7723384,68.2251897 L58.2315493,68.2251897 L58.2315493,60.2452636 L45.7723384,60.2452636 L40.5810001,64.2352267 L45.7723384,68.2251897 Z" id="x8" transform="translate(49.406275, 64.235227) scale(-1, 1) translate(-49.406275, -64.235227) "></path>
                <path d="M1.8290554,117.554897 L0.362115473,72.7290607 L7.19124374,82.8299957 L8.39829597,107.495636 L1.8290554,117.554897 Z" id="x9"></path>
                <path d="M14.1018584,109.222219 L14.1018584,96.1939952 L22.196234,80.6569879 L22.196234,94.9396036 L14.1018584,109.222219 Z" id="x10"></path>
                <path d="M30.5996917,81.49377 L37.4878943,81.49377 L39.0189107,105.870786 L31.6941555,105.870786 L30.5996917,81.49377 Z" id="x11"></path>
                <path d="M46.4923819,106.270331 L47.697184,93.6706275 L55.1343325,81.3347749 L55.1343325,93.6706275 L46.4923819,106.270331 Z" id="x12" transform="translate(50.813357, 93.802553) scale(-1, 1) translate(-50.813357, -93.802553) "></path>
                <path d="M63.4815918,81.3114738 L70.0065738,74.9290405 L73.7710644,119.842513 L66.2037042,113.433348 L63.4815918,81.3114738 Z" id="x13"></path>
                <path d="M66.7190672,127.503075 L11.4277197,127.503075 L18.0390516,120.0625 L61.3330999,120.0625 L66.7190672,127.503075 Z" id="x14"></path>
            </g>
            <g id="c2" transform="translate(117.000000, 3.000000)" sketch:type="MSShapeGroup">
                <path d="M16.1188802,0.205864195 L21.2132673,6.80707144 L75.5228834,6.80707144 L81.9436864,0.205864184 L16.1188802,0.205864195 Z" id="x1"></path>
                <path d="M2.97709475,56.351679 L8.46551268,9.76945704 L15.1247124,16.3864738 L10.9965071,50.6900799 L2.97709475,56.351679 Z" id="x2"></path>
                <path d="M23.4646941,51.1375629 L22.4062747,37.5548021 L28.115431,23.4653293 L29.6399752,37.5548021 L23.4646941,51.1375629 Z" id="x3" transform="translate(26.023125, 37.301446) scale(-1, 1) translate(-26.023125, -37.301446) "></path>
                <path d="M41.4438043,24.0243289 L48.6310675,24.0243289 L45.7458237,50.0914103 L38.5252655,50.0914103 L41.4438043,24.0243289 Z" id="x4"></path>
                <path d="M55.8069406,50.6460291 L55.8069406,38.511006 L66.9676576,22.773151 L65.8461538,35.1167036 L55.8069406,50.6460291 Z" id="x5"></path>
                <path d="M81.6663684,59.8169524 L75.0065627,51.7465064 L78.4849774,20.3698032 L86.0379481,12.3300216 L81.6663684,59.8169524 Z" id="x6"></path>
                <path d="M19.7979017,72.3313383 L35.894482,72.3313383 L35.8944827,62.9510835 L19.7979017,62.9510835 L14.9868251,67.6412109 L19.7979017,72.3313383 Z" id="x7"></path>
                <path d="M49.7749408,72.3313383 L65.7226125,72.3313385 L65.7226127,62.9510835 L49.7749408,62.9510835 L44.8035239,67.6412109 L49.7749408,72.3313383 Z" id="x8" transform="translate(55.263068, 67.641211) scale(-1, 1) translate(-55.263068, -67.641211) "></path>
                <path d="M2.73001334,122.76662 L0.820828051,76.6570354 L7.92397842,85.2488075 L9.04548225,112.513618 L2.73001334,122.76662 Z" id="x9"></path>
                <path d="M16.3448961,111.67512 L16.3448961,100.22222 L24.9787244,86.0767925 L24.9787243,100.22222 L16.3448961,111.67512 Z" id="x10"></path>
                <path d="M36.1534598,87.5715469 L43.8664282,87.5715469 L44.9204667,111.491124 L37.1601849,111.491124 L36.1534598,87.5715469 Z" id="x11"></path>
                <path d="M53.6997393,113.23296 L54.7981023,99.67459 L63.4007491,86.1162204 L63.4007491,98.5833138 L53.6997393,113.23296 Z" id="x12" transform="translate(58.550244, 99.674590) scale(-1, 1) translate(-58.550244, -99.674590) "></path>
                <path d="M73.6949288,82.564207 L80.5711497,76.4818005 L82.0501333,125.761383 L74.6157886,116.792859 L73.6949288,82.564207 Z" id="x13"></path>
                <path d="M75.0661462,134.841186 L10.8898309,134.841186 L16.7102612,126.50701 L69.3131784,126.50701 L75.0661462,134.841186 Z" id="x14"></path>
            </g>
            <g id="c3" transform="translate(240.000000, 1.000000)" sketch:type="MSShapeGroup">
                <path d="M12.1188802,1.20586419 L16.3650064,7.80707159 L81.4076451,8.03715088 L86.1384889,0.896937512 L12.1188802,1.20586419 Z" id="x1"></path>
                <path d="M1.77310616,59.3022418 L6.30109364,11.507668 L12.9602934,18.1246848 L8.83208805,52.4282909 L1.77310616,59.3022418 Z" id="x2"></path>
                <path d="M23.869583,52.6442755 L23.869583,40.5098725 L32.5721339,25.7472608 L32.5721339,38.8244398 L23.869583,52.6442755 Z" id="x3" transform="translate(28.220858, 39.195768) scale(-1, 1) translate(-28.220858, -39.195768) "></path>
                <path d="M41.8589135,23.5486343 L50.195807,23.5486343 L48.7202754,53.0501869 L40.5580421,53.0501869 L41.8589135,23.5486343 Z" id="x4"></path>
                <path d="M60.440455,52.6442755 L60.440455,40.356132 L71.3110548,23.9409301 L71.3110547,37.5437064 L60.440455,52.6442755 Z" id="x5"></path>
                <path d="M88.9078279,62.1113963 L82.0379481,54.5256941 L84.3330616,20.2651927 L91.4796844,13.769457 L88.9078279,62.1113963 Z" id="x6"></path>
                <path d="M20.9157251,74.3313383 L38.1384887,74.3313385 L38.1384889,64.9510835 L20.9157251,64.9510835 L15.9141477,69.6412109 L20.9157251,74.3313383 Z" id="x7"></path>
                <path d="M54.3657041,74.3313383 L71.3101629,74.3313385 L71.3101631,64.9510835 L54.3657041,64.9510835 L49.1286846,69.6412109 L54.3657041,74.3313383 Z" id="x8" transform="translate(60.219424, 69.641211) scale(-1, 1) translate(-60.219424, -69.641211) "></path>
                <path d="M1.43409553,128.954135 L0.621694893,78.6307941 L7.53111872,86.7299766 L7.53111879,119.313655 L1.43409553,128.954135 Z" id="x9"></path>
                <path d="M19.7755416,115.367648 L19.7755416,103.012864 L29.1209722,87.1201276 L29.1209719,100.25742 L19.7755416,115.367648 Z" id="x10"></path>
                <path d="M39.2919998,87.1970083 L47.5128107,87.1970083 L48.3723517,115.367647 L40.2478453,115.367647 L39.2919998,87.1970083 Z" id="x11"></path>
                <path d="M58.0468577,115.416552 L58.0468577,102.499362 L67.9231471,87.1201276 L67.9231468,100.760443 L58.0468577,115.416552 Z" id="x12" transform="translate(62.985002, 101.268340) scale(-1, 1) translate(-62.985002, -101.268340) "></path>
                <path d="M80.4637693,87.884849 L87.1807256,79.1626629 L88.2700819,130.249752 L81.3074387,121.35532 L80.4637693,87.884849 Z" id="x13"></path>
                <path d="M79.4234888,138.406063 L10.6701416,138.406063 L19.6560738,131.090583 L72.0556147,131.090583 L79.4234888,138.406063 Z" id="x14"></path>
            </g>
            <g id="c4" transform="translate(375.000000, 0.000000)" sketch:type="MSShapeGroup">
                <path d="M11.4676241,1.20586419 L15.7137503,7.80707159 L80.756389,8.03715088 L85.4872328,0.896937512 L11.4676241,1.20586419 Z" id="x1"></path>
                <path d="M2.1196049,58.3749395 L2.6237112,9.03715088 L9.98883353,14.3147561 L9.27233774,50.6176334 L2.1196049,58.3749395 Z" id="x2"></path>
                <path d="M19.8137045,52.1954916 L19.5926733,38.9555919 L30.6843045,21.9943538 L30.6843042,37.0949225 L19.8137045,52.1954916 Z" id="x3" transform="translate(25.138489, 37.094923) scale(-1, 1) translate(-25.138489, -37.094923) "></path>
                <path d="M41.367023,20.4251611 L49.5878339,20.4251611 L49.5878335,52.1954914 L41.367023,52.1954916 L41.367023,20.4251611 Z" id="x4"></path>
                <path d="M61.8137045,52.1954916 L61.5926733,38.9555919 L72.6843045,21.9943538 L72.6843042,37.0949225 L61.8137045,52.1954916 Z" id="x5"></path>
                <path d="M93.4512769,59.641211 L87.4524119,53.542073 L87.4524119,20.4010594 L93.8519768,12.5486343 L93.4512769,59.641211 Z" id="x6"></path>
                <path d="M20.4235344,74.9337281 L38.6191868,75.1534667 L38.6191869,65.7732117 L20.4235345,65.7732117 L15.1209722,70.4071118 L20.4235344,74.9337281 Z" id="x7"></path>
                <path d="M57.4235344,74.9337281 L75.6191868,75.1534667 L75.6191869,65.7732117 L57.4235345,65.7732117 L52.1209722,70.4071118 L57.4235344,74.9337281 Z" id="x8" transform="translate(63.870080, 70.463339) scale(-1, 1) translate(-63.870080, -70.463339) "></path>
                <path d="M0.540071887,128.695744 L0.540071816,79.7477541 L7.76301032,86.5157043 L7.76300995,122.596261 L0.540071887,128.695744 Z" id="x9"></path>
                <path d="M19.2678889,117.29204 L19.0468577,104.052141 L30.1384889,87.0909025 L30.1384886,102.191471 L19.2678889,117.29204 Z" id="x10"></path>
                <path d="M41.3726821,87.0909025 L49.5934929,87.0909025 L49.5934925,118.861233 L41.3726821,118.861233 L41.3726821,87.0909025 Z" id="x11"></path>
                <path d="M61.2678889,117.29204 L61.0468577,104.052141 L72.1384889,87.0909025 L72.1384886,102.191471 L61.2678889,117.29204 Z" id="x12" transform="translate(66.592673, 102.191471) scale(-1, 1) translate(-66.592673, -102.191471) "></path>
                <path d="M85.6106215,87.7867197 L92.6279033,81.3324575 L92.2181553,131.310073 L85.6106215,124.782161 L85.6106215,87.7867197 Z" id="x13"></path>
                <path d="M83.0450128,140.84156 L9.92116223,140.84156 L17.0717164,133.102882 L76.8251166,133.102882 L83.0450128,140.84156 Z" id="x14"></path>
            </g>
            <g id="c5" transform="translate(516.000000, 0.000000)" sketch:type="MSShapeGroup">
                <path d="M14.4676241,1.12823059 L18.7137503,7.72943799 L83.756389,7.95951727 L88.4872328,0.81930391 L14.4676241,1.12823059 Z" id="x1"></path>
                <path d="M2.1196049,60.3749395 L2.6237112,11.0371509 L9.98883353,16.3147561 L9.27233774,52.6176334 L2.1196049,60.3749395 Z" id="x2"></path>
                <path d="M23.8137045,53.1954916 L23.5926733,39.9555919 L34.6843045,22.9943538 L34.6843042,38.0949225 L23.8137045,53.1954916 Z" id="x3" transform="translate(29.138489, 38.094923) scale(-1, 1) translate(-29.138489, -38.094923) "></path>
                <path d="M46.367023,22.4251611 L54.5878339,22.4251611 L54.5878335,54.1954914 L46.367023,54.1954916 L46.367023,22.4251611 Z" id="x4"></path>
                <path d="M66.8137045,53.1954916 L66.5926733,39.9555919 L77.6843045,22.9943538 L77.6843042,38.0949225 L66.8137045,53.1954916 Z" id="x5"></path>
                <path d="M97.4512769,60.641211 L91.4524119,54.542073 L91.4524119,21.4010594 L97.8519768,13.5486343 L97.4512769,60.641211 Z" id="x6"></path>
                <path d="M24.4235344,76.9337281 L42.6191868,77.1534667 L42.6191869,67.7732117 L24.4235345,67.7732117 L19.1209722,72.4071118 L24.4235344,76.9337281 Z" id="x7"></path>
                <path d="M61.4235344,76.9337281 L79.6191868,77.1534667 L79.6191869,67.7732117 L61.4235345,67.7732117 L56.1209722,72.4071118 L61.4235344,76.9337281 Z" id="x8" transform="translate(67.870080, 72.463339) scale(-1, 1) translate(-67.870080, -72.463339) "></path>
                <path d="M0.540071887,130.695744 L0.540071816,81.7477541 L7.76301032,88.5157043 L7.76300995,124.596261 L0.540071887,130.695744 Z" id="x9"></path>
                <path d="M21.2678889,119.29204 L21.0468577,106.052141 L32.1384889,89.0909025 L32.1384886,104.191471 L21.2678889,119.29204 Z" id="x10"></path>
                <path d="M44.9815664,89.3739776 L53.2023772,89.3739776 L53.2023768,121.144308 L44.9815663,121.144308 L44.9815664,89.3739776 Z" id="x11"></path>
                <path d="M65.2678889,119.29204 L65.0468577,106.052141 L76.1384889,89.0909025 L76.1384886,104.191471 L65.2678889,119.29204 Z" id="x12" transform="translate(70.592673, 104.191471) scale(-1, 1) translate(-70.592673, -104.191471) "></path>
                <path d="M89.6106215,89.7867197 L96.6279033,83.3324575 L96.2181553,133.310073 L89.6106215,126.782161 L89.6106215,89.7867197 Z" id="x13"></path>
                <path d="M82.0450128,142.84156 L8.92116223,142.84156 L16.0717164,135.102882 L75.8251166,135.102882 L82.0450128,142.84156 Z" id="x14"></path>
            </g>
            <g id="c6" transform="translate(661.000000, 0.000000)" sketch:type="MSShapeGroup">
                <path d="M14.4676241,1.12823059 L18.7137503,7.72943799 L83.756389,7.95951727 L88.4872328,0.81930391 L14.4676241,1.12823059 Z" id="x1"></path>
                <path d="M2.1196049,60.3749395 L2.6237112,11.0371509 L9.98883353,16.3147561 L9.69800297,53.4570499 L2.1196049,60.3749395 Z" id="x2"></path>
                <path d="M23.8137045,53.1954916 L23.5926733,39.9555919 L34.6843045,22.9943538 L34.6843042,38.0949225 L23.8137045,53.1954916 Z" id="x3" transform="translate(29.138489, 38.094923) scale(-1, 1) translate(-29.138489, -38.094923) "></path>
                <path d="M46.367023,22.4251611 L54.5878339,22.4251611 L54.5878335,54.1954914 L46.367023,54.1954916 L46.367023,22.4251611 Z" id="x4"></path>
                <path d="M66.8137045,53.1954916 L66.5926733,39.9555919 L77.6843045,22.9943538 L77.6843042,38.0949225 L66.8137045,53.1954916 Z" id="x5"></path>
                <path d="M97.4512769,60.641211 L91.4524119,54.542073 L91.4524119,21.4010594 L97.8519768,13.5486343 L97.4512769,60.641211 Z" id="x6"></path>
                <path d="M24.4235344,76.9337281 L42.6191868,77.1534667 L42.6191869,67.7732117 L24.4235345,67.7732117 L19.1209722,72.4071118 L24.4235344,76.9337281 Z" id="x7"></path>
                <path d="M61.4235344,76.9337281 L79.6191868,77.1534667 L79.6191869,67.7732117 L61.4235345,67.7732117 L56.1209722,72.4071118 L61.4235344,76.9337281 Z" id="x8" transform="translate(67.870080, 72.463339) scale(-1, 1) translate(-67.870080, -72.463339) "></path>
                <path d="M0.540071887,130.695744 L0.540071816,81.7477541 L7.76301032,88.5157043 L7.76300995,124.596261 L0.540071887,130.695744 Z" id="x9"></path>
                <path d="M21.2678889,119.29204 L21.0468577,106.052141 L32.1384889,89.0909025 L32.1384886,104.191471 L21.2678889,119.29204 Z" id="x10"></path>
                <path d="M44.9815664,89.3739776 L53.2023772,89.3739776 L53.2023768,121.144308 L44.9815663,121.144308 L44.9815664,89.3739776 Z" id="x11"></path>
                <path d="M65.2678889,119.29204 L65.0468577,106.052141 L76.1384889,89.0909025 L76.1384886,104.191471 L65.2678889,119.29204 Z" id="x12" transform="translate(70.592673, 104.191471) scale(-1, 1) translate(-70.592673, -104.191471) "></path>
                <path d="M89.6106215,89.7867197 L96.6279033,83.3324575 L96.2181553,133.310073 L89.6106215,126.782161 L89.6106215,89.7867197 Z" id="x13"></path>
                <path d="M82.0450128,142.84156 L8.92116223,142.84156 L16.0717164,135.102882 L75.8251166,135.102882 L82.0450128,142.84156 Z" id="x14"></path>
            </g>
            <g id="c7" transform="translate(854.000000, 71.500000) scale(-1, 1) translate(-854.000000, -71.500000) translate(807.000000, 1.000000)" sketch:type="MSShapeGroup">
                <path d="M11.4676241,1.20586419 L15.7137503,7.80707159 L80.756389,8.03715088 L85.4872328,0.896937512 L11.4676241,1.20586419 Z" id="x1"></path>
                <path d="M93.4512769,59.641211 L87.4524119,53.542073 L87.4524119,20.4010594 L93.8519768,12.5486343 L93.4512769,59.641211 Z" id="x2"></path>
                <path d="M61.8137045,52.1954916 L61.5926733,38.9555919 L72.6843045,21.9943538 L72.6843042,37.0949225 L61.8137045,52.1954916 Z" id="x3"></path>
                <path d="M41.367023,20.4251611 L49.5878339,20.4251611 L49.5878335,52.1954914 L41.367023,52.1954916 L41.367023,20.4251611 Z" id="x4"></path>
                <path d="M19.8137045,52.1954916 L19.5926733,38.9555919 L30.6843045,21.9943538 L30.6843042,37.0949225 L19.8137045,52.1954916 Z" id="x5" transform="translate(25.138489, 37.094923) scale(-1, 1) translate(-25.138489, -37.094923) "></path>
                <path d="M2.1196049,58.3749395 L2.6237112,9.03715088 L9.98883353,14.3147561 L9.27233774,50.6176334 L2.1196049,58.3749395 Z" id="x6"></path>
                <path d="M57.4235344,74.9337281 L75.6191868,75.1534667 L75.6191869,65.7732117 L57.4235345,65.7732117 L52.1209722,70.4071118 L57.4235344,74.9337281 Z" id="x7" transform="translate(63.870080, 70.463339) scale(-1, 1) translate(-63.870080, -70.463339) "></path>
                <path d="M20.4235344,74.9337281 L38.6191868,75.1534667 L38.6191869,65.7732117 L20.4235345,65.7732117 L15.1209722,70.4071118 L20.4235344,74.9337281 Z" id="x8"></path>
                <path d="M85.6106215,87.7867197 L92.6279033,81.3324575 L92.2181553,131.310073 L85.6106215,124.782161 L85.6106215,87.7867197 Z" id="x9"></path>
                <path d="M61.2678889,117.29204 L61.0468577,104.052141 L72.1384889,87.0909025 L72.1384886,102.191471 L61.2678889,117.29204 Z" id="x10" transform="translate(66.592673, 102.191471) scale(-1, 1) translate(-66.592673, -102.191471) "></path>
                <path d="M41.3726821,87.0909025 L49.5934929,87.0909025 L49.5934925,118.861233 L41.3726821,118.861233 L41.3726821,87.0909025 Z" id="x11"></path>
                <path d="M19.2678889,117.29204 L19.0468577,104.052141 L30.1384889,87.0909025 L30.1384886,102.191471 L19.2678889,117.29204 Z" id="x12"></path>
                <path d="M0.540071887,128.695744 L0.540071816,79.7477541 L7.76301032,86.5157043 L7.76300995,122.596261 L0.540071887,128.695744 Z" id="x13"></path>
                <path d="M83.0450128,140.84156 L9.92116223,140.84156 L17.0717164,133.102882 L76.8251166,133.102882 L83.0450128,140.84156 Z" id="x14"></path>
            </g>
            <g id="c8" transform="translate(989.000000, 71.500000) scale(-1, 1) translate(-989.000000, -71.500000) translate(943.000000, 2.000000)" sketch:type="MSShapeGroup">
                <path d="M12.1188802,1.20586419 L16.3650064,7.80707159 L81.4076451,8.03715088 L86.1384889,0.896937512 L12.1188802,1.20586419 Z" id="x1"></path>
                <path d="M1.77310616,59.3022418 L6.30109364,11.507668 L12.9602934,18.1246848 L8.83208805,52.4282909 L1.77310616,59.3022418 Z" id="x6"></path>
                <path d="M23.869583,52.6442755 L23.869583,40.5098725 L32.5721339,25.7472608 L32.5721339,38.8244398 L23.869583,52.6442755 Z" id="x5" transform="translate(28.220858, 39.195768) scale(-1, 1) translate(-28.220858, -39.195768) "></path>
                <path d="M41.8589135,23.5486343 L50.195807,23.5486343 L48.7202754,53.0501869 L40.5580421,53.0501869 L41.8589135,23.5486343 Z" id="x4"></path>
                <path d="M60.440455,52.6442755 L60.440455,40.356132 L71.3110548,23.9409301 L71.3110547,37.5437064 L60.440455,52.6442755 Z" id="x3"></path>
                <path d="M88.9078279,62.1113963 L82.0379481,54.5256941 L84.3330616,20.2651927 L91.4796844,13.769457 L88.9078279,62.1113963 Z" id="x2"></path>
                <path d="M20.9157251,74.3313383 L38.1384887,74.3313385 L38.1384889,64.9510835 L20.9157251,64.9510835 L15.9141477,69.6412109 L20.9157251,74.3313383 Z" id="x8"></path>
                <path d="M54.3657041,74.3313383 L71.3101629,74.3313385 L71.3101631,64.9510835 L54.3657041,64.9510835 L49.1286846,69.6412109 L54.3657041,74.3313383 Z" id="x7" transform="translate(60.219424, 69.641211) scale(-1, 1) translate(-60.219424, -69.641211) "></path>
                <path d="M1.43409553,128.954135 L0.621694893,78.6307941 L7.53111872,86.7299766 L7.53111879,119.313655 L1.43409553,128.954135 Z" id="x13"></path>
                <path d="M19.7755416,115.367648 L19.7755416,103.012864 L29.1209722,87.1201276 L29.1209719,100.25742 L19.7755416,115.367648 Z" id="x12"></path>
                <path d="M39.2919998,87.1970083 L47.5128107,87.1970083 L48.3723517,115.367647 L40.2478453,115.367647 L39.2919998,87.1970083 Z" id="x11"></path>
                <path d="M58.0468577,115.416552 L58.0468577,102.499362 L67.9231471,87.1201276 L67.9231468,100.760443 L58.0468577,115.416552 Z" id="x10" transform="translate(62.985002, 101.268340) scale(-1, 1) translate(-62.985002, -101.268340) "></path>
                <path d="M80.4637693,87.884849 L87.1807256,79.1626629 L88.2700819,130.249752 L81.3074387,121.35532 L80.4637693,87.884849 Z" id="x9"></path>
                <path d="M79.4234888,138.406063 L10.6701416,138.406063 L19.6560738,131.090583 L72.0556147,131.090583 L79.4234888,138.406063 Z" id="x14"></path>
            </g>
            <g id="c9" transform="translate(1116.500000, 71.500000) scale(-1, 1) translate(-1116.500000, -71.500000) translate(1073.000000, 4.000000)" sketch:type="MSShapeGroup">
                <path d="M16.1188802,0.205864195 L21.2132673,6.80707144 L75.5228834,6.80707144 L81.9436864,0.205864184 L16.1188802,0.205864195 Z" id="x1"></path>
                <path d="M2.97709475,56.351679 L8.46551268,9.76945704 L15.1247124,16.3864738 L10.9965071,50.6900799 L2.97709475,56.351679 Z" id="x6"></path>
                <path d="M23.4646941,51.1375629 L22.4062747,37.5548021 L28.115431,23.4653293 L29.6399752,37.5548021 L23.4646941,51.1375629 Z" id="x5" transform="translate(26.023125, 37.301446) scale(-1, 1) translate(-26.023125, -37.301446) "></path>
                <path d="M41.4438043,24.0243289 L48.6310675,24.0243289 L45.7458237,50.0914103 L38.5252655,50.0914103 L41.4438043,24.0243289 Z" id="x4"></path>
                <path d="M55.8069406,50.6460291 L55.8069406,38.511006 L66.9676576,22.773151 L65.8461538,35.1167036 L55.8069406,50.6460291 Z" id="x3"></path>
                <path d="M81.6663684,59.8169524 L75.0065627,51.7465064 L78.4849774,20.3698032 L86.0379481,12.3300216 L81.6663684,59.8169524 Z" id="x2"></path>
                <path d="M19.7979017,72.3313383 L35.894482,72.3313383 L35.8944827,62.9510835 L19.7979017,62.9510835 L14.9868251,67.6412109 L19.7979017,72.3313383 Z" id="x8"></path>
                <path d="M49.7749408,72.3313383 L65.7226125,72.3313385 L65.7226127,62.9510835 L49.7749408,62.9510835 L44.8035239,67.6412109 L49.7749408,72.3313383 Z" id="x7" transform="translate(55.263068, 67.641211) scale(-1, 1) translate(-55.263068, -67.641211) "></path>
                <path d="M2.73001334,122.76662 L0.820828051,76.6570354 L7.92397842,85.2488075 L9.04548225,112.513618 L2.73001334,122.76662 Z" id="x13"></path>
                <path d="M16.3448961,111.67512 L16.3448961,100.22222 L24.9787244,86.0767925 L24.9787243,100.22222 L16.3448961,111.67512 Z" id="x12"></path>
                <path d="M36.1534598,87.5715469 L43.8664282,87.5715469 L44.9204667,111.491124 L37.1601849,111.491124 L36.1534598,87.5715469 Z" id="x11"></path>
                <path d="M53.6997393,113.23296 L54.7981023,99.67459 L63.4007491,86.1162204 L63.4007491,98.5833138 L53.6997393,113.23296 Z" id="x10" transform="translate(58.550244, 99.674590) scale(-1, 1) translate(-58.550244, -99.674590) "></path>
                <path d="M73.6949288,82.564207 L80.5711497,76.4818005 L82.0501333,125.761383 L74.6157886,116.792859 L73.6949288,82.564207 Z" id="x9"></path>
                <path d="M75.0661462,134.841186 L10.8898309,134.841186 L16.7102612,126.50701 L69.3131784,126.50701 L75.0661462,134.841186 Z" id="x14"></path>
            </g>
            <g id="c10" transform="translate(1238.000000, 71.000000) scale(-1, 1) translate(-1238.000000, -71.000000) translate(1199.000000, 7.000000)" sketch:type="MSShapeGroup">
                <path d="M17.6245601,0.308576605 L22.7189472,6.90978385 L66.0508755,6.90978385 L72.7430752,0.308576605 L17.6245601,0.308576605 Z" id="x1"></path>
                <path d="M0.675484639,53.1109869 L9.68659125,7.7003004 L15.8054157,15.0656378 L9.68659137,46.0775854 L0.675484639,53.1109869 Z" id="x6"></path>
                <path d="M20.5192448,47.9950763 L18.3810297,37.6021196 L24.3173162,21.8656836 L26.5734059,31.9612085 L20.5192448,47.9950763 Z" id="x5" transform="translate(22.477218, 34.930380) scale(-1, 1) translate(-22.477218, -34.930380) "></path>
                <path d="M36.3824652,20.3497445 L44.312362,20.3497445 L40.2682584,47.3796536 L32.1423582,47.3796536 L36.3824652,20.3497445 Z" id="x4"></path>
                <path d="M46.6972941,48.5063282 L47.8644033,37.0607134 L60.0172737,21.0062858 L58.0346287,32.987826 L46.6972941,48.5063282 Z" id="x3"></path>
                <path d="M71.2110324,55.6823668 L65.0050705,48.5933661 L69.9757342,17.6947946 L77.5088282,10.3844313 L71.2110324,55.6823668 Z" id="x2"></path>
                <path d="M16.4765104,68.2251897 L28.9357212,68.2251897 L28.9357212,60.2452636 L16.4765104,60.2452636 L11.2851721,64.2352267 L16.4765104,68.2251897 Z" id="x8"></path>
                <path d="M45.7723384,68.2251897 L58.2315493,68.2251897 L58.2315493,60.2452636 L45.7723384,60.2452636 L40.5810001,64.2352267 L45.7723384,68.2251897 Z" id="x7" transform="translate(49.406275, 64.235227) scale(-1, 1) translate(-49.406275, -64.235227) "></path>
                <path d="M1.8290554,117.554897 L0.362115473,72.7290607 L7.19124374,82.8299957 L8.39829597,107.495636 L1.8290554,117.554897 Z" id="x13"></path>
                <path d="M14.1018584,109.222219 L14.1018584,96.1939952 L22.196234,80.6569879 L22.196234,94.9396036 L14.1018584,109.222219 Z" id="x12"></path>
                <path d="M30.5996917,81.49377 L37.4878943,81.49377 L39.0189107,105.870786 L31.6941555,105.870786 L30.5996917,81.49377 Z" id="x11"></path>
                <path d="M46.4923819,106.270331 L47.697184,93.6706275 L55.1343325,81.3347749 L55.1343325,93.6706275 L46.4923819,106.270331 Z" id="x10" transform="translate(50.813357, 93.802553) scale(-1, 1) translate(-50.813357, -93.802553) "></path>
                <path d="M63.4815918,81.3114738 L70.0065738,74.9290405 L73.7710644,119.842513 L66.2037042,113.433348 L63.4815918,81.3114738 Z" id="x9"></path>
                <path d="M66.7190672,127.503075 L11.4277197,127.503075 L18.0390516,120.0625 L61.3330999,120.0625 L66.7190672,127.503075 Z" id="x14"></path>
            </g>
        </g>
    </g>
</svg>
